<svg width="114" height="18" viewBox="0 0 114 18" fill="none" xmlns="http://www.w3.org/2000/svg">
<path d="M0 9.40482C0 8.48467 0.181314 7.66453 0.543943 6.94441C0.906572 6.22429 1.42712 5.66705 2.10559 5.2727C2.7899 4.87835 3.58242 4.68117 4.48315 4.68117C5.76404 4.68117 6.80806 5.0641 7.61521 5.82994C8.4282 6.59578 8.88148 7.63596 8.97507 8.95046L8.99261 9.58485C8.99261 11.008 8.58612 12.151 7.77313 13.014C6.96013 13.8713 5.86932 14.2999 4.50069 14.2999C3.13206 14.2999 2.03833 13.8713 1.21949 13.014C0.406495 12.1567 0 10.9908 0 9.51627V9.40482ZM2.53548 9.58485C2.53548 10.465 2.70509 11.1394 3.04433 11.6081C3.38356 12.071 3.86902 12.3025 4.50069 12.3025C5.11482 12.3025 5.59443 12.0738 5.93951 11.6166C6.28459 11.1537 6.45713 10.4164 6.45713 9.40482C6.45713 8.54182 6.28459 7.87314 5.93951 7.39877C5.59443 6.92441 5.10897 6.68722 4.48315 6.68722C3.86317 6.68722 3.38356 6.92441 3.04433 7.39877C2.70509 7.86742 2.53548 8.59612 2.53548 9.58485Z" fill="white"/>
<path d="M11.2473 14.1285V6.67008H9.83485V4.85263H11.2473V4.06393C11.2473 3.02375 11.5515 2.2179 12.1598 1.64638C12.7739 1.06914 13.6308 0.780518 14.7303 0.780518C15.0813 0.780518 15.5112 0.83767 16.02 0.951975L15.9937 2.8723C15.7831 2.82086 15.5258 2.79514 15.2216 2.79514C14.2683 2.79514 13.7916 3.23236 13.7916 4.10679V4.85263H15.6779V6.67008H13.7916V14.1285H11.2473Z" fill="white"/>
<path d="M21.0734 9.40482C21.0734 8.48467 21.2547 7.66453 21.6174 6.94441C21.98 6.22429 22.5005 5.66705 23.179 5.2727C23.8633 4.87835 24.6558 4.68117 25.5566 4.68117C26.8375 4.68117 27.8815 5.0641 28.6886 5.82994C29.5016 6.59578 29.9549 7.63596 30.0485 8.95046L30.066 9.58485C30.066 11.008 29.6595 12.151 28.8465 13.014C28.0336 13.8713 26.9427 14.2999 25.5741 14.2999C24.2055 14.2999 23.1117 13.8713 22.2929 13.014C21.4799 12.1567 21.0734 10.9908 21.0734 9.51627V9.40482ZM23.6089 9.58485C23.6089 10.465 23.7785 11.1394 24.1177 11.6081C24.457 12.071 24.9424 12.3025 25.5741 12.3025C26.1882 12.3025 26.6678 12.0738 27.0129 11.6166C27.358 11.1537 27.5306 10.4164 27.5306 9.40482C27.5306 8.54182 27.358 7.87314 27.0129 7.39877C26.6678 6.92441 26.1824 6.68722 25.5566 6.68722C24.9366 6.68722 24.457 6.92441 24.1177 7.39877C23.7785 7.86742 23.6089 8.59612 23.6089 9.58485Z" fill="white"/>
<path d="M35.0405 11.1023L36.8039 4.85263H39.4534L36.2512 14.1285H33.8298L30.6275 4.85263H33.2771L35.0405 11.1023Z" fill="white"/>
<path d="M44.8227 14.2999C43.4307 14.2999 42.296 13.8827 41.4187 13.0483C40.5472 12.2139 40.1114 11.1023 40.1114 9.71345V9.47341C40.1114 8.54182 40.2957 7.71025 40.6642 6.9787C41.0326 6.24144 41.5532 5.67563 42.2258 5.28127C42.9043 4.88121 43.6763 4.68117 44.5419 4.68117C45.8404 4.68117 46.861 5.08124 47.6038 5.88137C48.3525 6.68151 48.7268 7.81599 48.7268 9.2848V10.2964H42.682C42.7639 10.9022 43.0095 11.388 43.419 11.7538C43.8342 12.1196 44.3577 12.3025 44.9894 12.3025C45.9661 12.3025 46.7294 11.9567 47.2792 11.2651L48.525 12.6282C48.1448 13.154 47.6301 13.5655 46.9809 13.8627C46.3317 14.1542 45.6123 14.2999 44.8227 14.2999ZM44.5332 6.68722C44.0302 6.68722 43.6207 6.85297 43.3049 7.18445C42.9949 7.51594 42.7961 7.9903 42.7083 8.60755H46.2352V8.41037C46.2235 7.86171 46.0714 7.43878 45.779 7.14159C45.4865 6.83868 45.0713 6.68722 44.5332 6.68722Z" fill="white"/>
<path d="M55.5085 7.17588C55.1635 7.13016 54.8593 7.1073 54.5961 7.1073C53.6369 7.1073 53.0082 7.42449 52.7099 8.05888V14.1285H50.1744V4.85263H52.5695L52.6397 5.95853C53.1485 5.10696 53.8533 4.68117 54.754 4.68117C55.0348 4.68117 55.298 4.71832 55.5436 4.79262L55.5085 7.17588Z" fill="white"/>
<path d="M60.8427 9.42197C60.8427 7.99887 61.1878 6.85297 61.8779 5.98425C62.574 5.11553 63.5098 4.68117 64.6854 4.68117C65.7265 4.68117 66.5366 5.0298 67.1156 5.72706L67.2209 4.85263H69.5195V13.8199C69.5195 14.6314 69.3294 15.3372 68.9492 15.9374C68.5749 16.5375 68.0456 16.9947 67.3612 17.309C66.6769 17.6233 65.8756 17.7805 64.9574 17.7805C64.2613 17.7805 63.5829 17.6434 62.922 17.369C62.261 17.1004 61.761 16.7518 61.4217 16.3231L62.5447 14.8143C63.1764 15.5058 63.9426 15.8516 64.8433 15.8516C65.5159 15.8516 66.0394 15.6744 66.4137 15.3201C66.7881 14.9715 66.9752 14.4742 66.9752 13.8284V13.3312C66.3903 13.977 65.6212 14.2999 64.6678 14.2999C63.5273 14.2999 62.6032 13.8656 61.8955 12.9969C61.1936 12.1224 60.8427 10.9651 60.8427 9.52485V9.42197ZM63.3782 9.602C63.3782 10.4421 63.5507 11.1023 63.8958 11.5823C64.2409 12.0567 64.7146 12.2939 65.3171 12.2939C66.0891 12.2939 66.6418 12.011 66.9752 11.4452V7.54451C66.636 6.9787 66.0891 6.6958 65.3346 6.6958C64.7263 6.6958 64.2467 6.9387 63.8958 7.42449C63.5507 7.91029 63.3782 8.63612 63.3782 9.602Z" fill="white"/>
<path d="M76.9768 14.1285C76.8598 13.9056 76.775 13.6284 76.7223 13.2969C76.1082 13.9656 75.3098 14.2999 74.3272 14.2999C73.3973 14.2999 72.6252 14.037 72.0111 13.5112C71.4028 12.9854 71.0987 12.3225 71.0987 11.5223C71.0987 10.5393 71.4701 9.78489 72.2129 9.25909C72.9615 8.73328 74.0406 8.46752 75.4502 8.46181H76.6171V7.93029C76.6171 7.50165 76.503 7.15873 76.2749 6.90155C76.0526 6.64436 75.6988 6.51577 75.2133 6.51577C74.7864 6.51577 74.4501 6.61578 74.2044 6.81582C73.9646 7.01585 73.8447 7.29018 73.8447 7.63881H71.3092C71.3092 7.10158 71.4788 6.60435 71.8181 6.14713C72.1573 5.68991 72.6369 5.33271 73.2569 5.07553C73.8769 4.81262 74.5729 4.68117 75.3449 4.68117C76.5147 4.68117 77.4417 4.96979 78.1261 5.54703C78.8162 6.11856 79.1613 6.92441 79.1613 7.96458V11.9853C79.1671 12.8654 79.2929 13.5312 79.5386 13.9827V14.1285H76.9768ZM74.8799 12.4053C75.2543 12.4053 75.5993 12.3253 75.9152 12.1653C76.231 11.9995 76.465 11.7795 76.6171 11.5052V9.91062H75.6695C74.4003 9.91062 73.7248 10.3393 73.6429 11.1966L73.6341 11.3423C73.6341 11.6509 73.7453 11.9052 73.9675 12.1053C74.1898 12.3053 74.4939 12.4053 74.8799 12.4053Z" fill="white"/>
<path d="M83.4865 4.85263L83.5655 5.88995C84.2381 5.0841 85.1476 4.68117 86.294 4.68117C87.5164 4.68117 88.3557 5.15268 88.8119 6.0957C89.4787 5.15268 90.4291 4.68117 91.6632 4.68117C92.6926 4.68117 93.4588 4.97551 93.9618 5.56418C94.4648 6.14713 94.7163 7.02728 94.7163 8.20462V14.1285H92.1721V8.2132C92.1721 7.68739 92.0668 7.30447 91.8562 7.06443C91.6457 6.81868 91.2743 6.6958 90.742 6.6958C89.9817 6.6958 89.4553 7.05014 89.1628 7.75883L89.1716 14.1285H86.6361V8.22177C86.6361 7.68454 86.5279 7.2959 86.3115 7.05586C86.0951 6.81582 85.7266 6.6958 85.2061 6.6958C84.4867 6.6958 83.9661 6.98728 83.6444 7.57023V14.1285H81.109V4.85263H83.4865Z" fill="white"/>
<path d="M101.042 14.2999C99.6498 14.2999 98.5152 13.8827 97.6378 13.0483C96.7663 12.2139 96.3306 11.1023 96.3306 9.71345V9.47341C96.3306 8.54182 96.5149 7.71025 96.8833 6.9787C97.2518 6.24144 97.7723 5.67563 98.445 5.28127C99.1234 4.88121 99.8955 4.68117 100.761 4.68117C102.06 4.68117 103.08 5.08124 103.823 5.88137C104.572 6.68151 104.946 7.81599 104.946 9.2848V10.2964H98.9012C98.9831 10.9022 99.2287 11.388 99.6381 11.7538C100.053 12.1196 100.577 12.3025 101.209 12.3025C102.185 12.3025 102.949 11.9567 103.498 11.2651L104.744 12.6282C104.364 13.154 103.849 13.5655 103.2 13.8627C102.551 14.1542 101.831 14.2999 101.042 14.2999ZM100.752 6.68722C100.249 6.68722 99.8399 6.85297 99.5241 7.18445C99.2141 7.51594 99.0152 7.9903 98.9275 8.60755H102.454V8.41037C102.443 7.86171 102.291 7.43878 101.998 7.14159C101.706 6.83868 101.29 6.68722 100.752 6.68722Z" fill="white"/>
<path d="M111.535 11.5652C111.535 11.2623 111.38 11.0251 111.07 10.8536C110.766 10.6765 110.274 10.5193 109.596 10.3821C107.338 9.9192 106.209 8.9819 106.209 7.57023C106.209 6.74723 106.557 6.06141 107.253 5.51274C107.955 4.95836 108.871 4.68117 109.999 4.68117C111.204 4.68117 112.166 4.95836 112.886 5.51274C113.611 6.06712 113.974 6.78724 113.974 7.6731H111.438C111.438 7.31876 111.321 7.02728 111.087 6.79867C110.853 6.56435 110.488 6.44718 109.991 6.44718C109.564 6.44718 109.233 6.54149 108.999 6.73009C108.765 6.91869 108.648 7.15873 108.648 7.45021C108.648 7.72454 108.78 7.94744 109.043 8.11889C109.312 8.28464 109.762 8.43037 110.394 8.55611C111.026 8.67613 111.558 8.8133 111.991 8.96761C113.33 9.44769 114 10.2793 114 11.4623C114 12.3082 113.629 12.994 112.886 13.5198C112.143 14.0399 111.184 14.2999 110.008 14.2999C109.213 14.2999 108.505 14.1628 107.885 13.8884C107.271 13.6084 106.788 13.2283 106.437 12.7482C106.086 12.2624 105.911 11.7395 105.911 11.1794H108.315C108.338 11.6195 108.505 11.9567 108.815 12.191C109.125 12.4253 109.54 12.5425 110.061 12.5425C110.546 12.5425 110.912 12.4539 111.157 12.2767C111.409 12.0938 111.535 11.8567 111.535 11.5652Z" fill="white"/>
</svg>
