<svg width="131" height="17" viewBox="0 0 131 17" fill="none" xmlns="http://www.w3.org/2000/svg">
<path d="M2.09607 8.84945V13.2367H0V1.42928H4.61466C5.96233 1.42928 7.03107 1.77258 7.8209 2.45918C8.61624 3.14578 9.01391 4.05404 9.01391 5.18396C9.01391 6.34092 8.62453 7.24107 7.84575 7.88442C7.0725 8.52777 5.98718 8.84945 4.58981 8.84945H2.09607ZM2.09607 7.20322H4.61466C5.3603 7.20322 5.92919 7.03293 6.32134 6.69233C6.71349 6.34632 6.90956 5.84894 6.90956 5.20018C6.90956 4.56224 6.71073 4.05404 6.31305 3.6756C5.91538 3.29175 5.36858 3.09442 4.67265 3.08361H2.09607V7.20322Z" fill="white"/>
<path d="M12.8001 13.2367H10.7869V0.780518H12.8001V13.2367Z" fill="white"/>
<path d="M20.3559 13.2367C20.2675 13.0691 20.1902 12.7961 20.1239 12.4176C19.4832 13.0718 18.6989 13.3989 17.771 13.3989C16.8707 13.3989 16.1361 13.1475 15.5672 12.6447C14.9983 12.1419 14.7139 11.5202 14.7139 10.7795C14.7139 9.84421 15.0674 9.12787 15.7743 8.63049C16.4868 8.1277 17.5031 7.87631 18.8232 7.87631H20.0576V7.30054C20.0576 6.84641 19.9278 6.48418 19.6682 6.21387C19.4086 5.93815 19.0137 5.80028 18.4835 5.80028C18.0251 5.80028 17.6495 5.91382 17.3568 6.14088C17.064 6.36254 16.9177 6.64637 16.9177 6.99238H14.9044C14.9044 6.51122 15.0674 6.06249 15.3932 5.6462C15.7191 5.22451 16.161 4.89473 16.7188 4.65685C17.2822 4.41897 17.9091 4.30003 18.5995 4.30003C19.6489 4.30003 20.4857 4.55953 21.1098 5.07854C21.7339 5.59214 22.0543 6.31659 22.0708 7.25188V11.2093C22.0708 11.9986 22.1841 12.6285 22.4105 13.0988V13.2367H20.3559ZM18.1438 11.8175C18.5415 11.8175 18.9143 11.7229 19.2623 11.5337C19.6158 11.3445 19.8809 11.0904 20.0576 10.7714V9.11706H18.9723C18.2267 9.11706 17.6661 9.24411 17.2905 9.49821C16.9149 9.7523 16.7271 10.1118 16.7271 10.5768C16.7271 10.9552 16.8541 11.258 17.1082 11.485C17.3678 11.7067 17.713 11.8175 18.1438 11.8175Z" fill="white"/>
<path d="M27.1826 10.4146L29.0052 4.46222H31.151L27.5885 14.5666C27.0417 16.0426 26.1138 16.7805 24.8048 16.7805C24.5121 16.7805 24.189 16.7319 23.8355 16.6345V15.11L24.2166 15.1343C24.7247 15.1343 25.1058 15.0424 25.3599 14.8586C25.6195 14.6802 25.8239 14.3774 25.973 13.9503L26.263 13.1961L23.1147 4.46222H25.2854L27.1826 10.4146Z" fill="white"/>
<path d="M36.1468 13.3989C34.8709 13.3989 33.8353 13.0069 33.04 12.223C32.2501 11.4337 31.8552 10.3848 31.8552 9.07651V8.83323C31.8552 7.95741 32.0265 7.17619 32.3689 6.48959C32.7169 5.79758 33.2029 5.25965 33.827 4.8758C34.4512 4.49196 35.1471 4.30003 35.9148 4.30003C37.1354 4.30003 38.0772 4.68118 38.7399 5.44347C39.4083 6.20576 39.7424 7.28432 39.7424 8.67915V9.47388H33.885C33.9458 10.1983 34.1916 10.7714 34.6224 11.1931C35.0587 11.6148 35.6055 11.8256 36.2628 11.8256C37.1852 11.8256 37.9363 11.4607 38.5163 10.7308L39.6016 11.7445C39.2426 12.2689 38.762 12.6771 38.16 12.9691C37.5635 13.2556 36.8924 13.3989 36.1468 13.3989ZM35.9065 5.88138C35.3542 5.88138 34.9068 6.0706 34.5644 6.44904C34.2275 6.82749 34.0121 7.3546 33.9182 8.03039H37.754V7.88442C37.7099 7.22485 37.5304 6.72747 37.2155 6.39228C36.9007 6.05168 36.4644 5.88138 35.9065 5.88138Z" fill="white"/>
<path d="M46.0058 6.26252C45.7406 6.21927 45.4672 6.19765 45.1856 6.19765C44.2632 6.19765 43.6418 6.54365 43.3215 7.23566V13.2367H41.3082V4.46222H43.2303L43.28 5.44347C43.7661 4.68118 44.4399 4.30003 45.3015 4.30003C45.5887 4.30003 45.8262 4.33788 46.014 4.41356L46.0058 6.26252Z" fill="white"/>
<path d="M52.3022 10.8525C52.3022 10.5011 52.1531 10.2335 51.8549 10.0497C51.5621 9.86584 51.0733 9.70365 50.3884 9.56308C49.7036 9.42252 49.1319 9.24411 48.6735 9.02786C47.6682 8.5521 47.1656 7.86279 47.1656 6.95994C47.1656 6.20305 47.4915 5.57052 48.1432 5.06232C48.795 4.55413 49.6235 4.30003 50.6287 4.30003C51.7002 4.30003 52.5646 4.55953 53.2219 5.07854C53.8846 5.59755 54.216 6.27063 54.216 7.0978H52.2028C52.2028 6.71936 52.0592 6.40579 51.772 6.1571C51.4848 5.903 51.1037 5.77596 50.6287 5.77596C50.1868 5.77596 49.8251 5.87597 49.5434 6.07601C49.2672 6.27604 49.1291 6.54365 49.1291 6.87884C49.1291 7.1816 49.2589 7.41677 49.5185 7.58437C49.7781 7.75197 50.3028 7.92226 51.0926 8.09527C51.8825 8.26286 52.5011 8.4656 52.9485 8.70348C53.4014 8.93595 53.7355 9.21708 53.9509 9.54686C54.1719 9.87665 54.2823 10.2767 54.2823 10.7471C54.2823 11.5364 53.9482 12.177 53.2799 12.669C52.6115 13.1556 51.7361 13.3989 50.6536 13.3989C49.919 13.3989 49.2645 13.2691 48.69 13.0096C48.1156 12.7501 47.6682 12.3933 47.3479 11.9392C47.0275 11.485 46.8674 10.9958 46.8674 10.4713H48.8226C48.8502 10.9363 49.0297 11.2958 49.3611 11.5499C49.6925 11.7986 50.1316 11.9229 50.6784 11.9229C51.2086 11.9229 51.6118 11.8256 51.888 11.631C52.1642 11.431 52.3022 11.1715 52.3022 10.8525Z" fill="white"/>
<path d="M64.2158 13.3989C62.94 13.3989 61.9044 13.0069 61.109 12.223C60.3192 11.4337 59.9243 10.3848 59.9243 9.07651V8.83323C59.9243 7.95741 60.0955 7.17619 60.438 6.48959C60.7859 5.79758 61.272 5.25965 61.8961 4.8758C62.5202 4.49196 63.2161 4.30003 63.9839 4.30003C65.2045 4.30003 66.1462 4.68118 66.809 5.44347C67.4773 6.20576 67.8115 7.28432 67.8115 8.67915V9.47388H61.9541C62.0148 10.1983 62.2606 10.7714 62.6914 11.1931C63.1278 11.6148 63.6746 11.8256 64.3318 11.8256C65.2542 11.8256 66.0054 11.4607 66.5853 10.7308L67.6706 11.7445C67.3116 12.2689 66.8311 12.6771 66.2291 12.9691C65.6326 13.2556 64.9615 13.3989 64.2158 13.3989ZM63.9756 5.88138C63.4233 5.88138 62.9759 6.0706 62.6334 6.44904C62.2965 6.82749 62.0811 7.3546 61.9872 8.03039H65.8231V7.88442C65.7789 7.22485 65.5994 6.72747 65.2846 6.39228C64.9698 6.05168 64.5334 5.88138 63.9756 5.88138Z" fill="white"/>
<path d="M72.4261 10.739L74.3234 4.46222H76.4029L73.296 13.2367H71.5479L68.4163 4.46222H70.504L72.4261 10.739Z" fill="white"/>
<path d="M81.498 13.3989C80.2222 13.3989 79.1866 13.0069 78.3912 12.223C77.6014 11.4337 77.2065 10.3848 77.2065 9.07651V8.83323C77.2065 7.95741 77.3777 7.17619 77.7201 6.48959C78.0681 5.79758 78.5542 5.25965 79.1783 4.8758C79.8024 4.49196 80.4983 4.30003 81.2661 4.30003C82.4867 4.30003 83.4284 4.68118 84.0912 5.44347C84.7595 6.20576 85.0937 7.28432 85.0937 8.67915V9.47388H79.2363C79.297 10.1983 79.5428 10.7714 79.9736 11.1931C80.41 11.6148 80.9568 11.8256 81.614 11.8256C82.5364 11.8256 83.2876 11.4607 83.8675 10.7308L84.9528 11.7445C84.5938 12.2689 84.1133 12.6771 83.5113 12.9691C82.9147 13.2556 82.2437 13.3989 81.498 13.3989ZM81.2578 5.88138C80.7055 5.88138 80.2581 6.0706 79.9156 6.44904C79.5787 6.82749 79.3633 7.3546 79.2694 8.03039H83.1053V7.88442C83.0611 7.22485 82.8816 6.72747 82.5668 6.39228C82.252 6.05168 81.8156 5.88138 81.2578 5.88138Z" fill="white"/>
<path d="M91.357 6.26252C91.0919 6.21927 90.8185 6.19765 90.5368 6.19765C89.6144 6.19765 88.9931 6.54365 88.6727 7.23566V13.2367H86.6595V4.46222H88.5816L88.6313 5.44347C89.1173 4.68118 89.7912 4.30003 90.6528 4.30003C90.94 4.30003 91.1775 4.33788 91.3653 4.41356L91.357 6.26252Z" fill="white"/>
<path d="M95.9137 10.4146L97.7363 4.46222H99.8821L96.3196 14.5666C95.7728 16.0426 94.8449 16.7805 93.5359 16.7805C93.2432 16.7805 92.9201 16.7319 92.5666 16.6345V15.11L92.9477 15.1343C93.4558 15.1343 93.8369 15.0424 94.091 14.8586C94.3506 14.6802 94.555 14.3774 94.7041 13.9503L94.994 13.1961L91.8458 4.46222H94.0164L95.9137 10.4146Z" fill="white"/>
<path d="M104.894 8.78457C104.894 7.43299 105.215 6.34903 105.855 5.53267C106.496 4.71091 107.355 4.30003 108.432 4.30003C109.382 4.30003 110.15 4.62441 110.735 5.27317V0.780518H112.748V13.2367H110.926L110.826 12.3284C110.224 13.042 109.421 13.3989 108.416 13.3989C107.366 13.3989 106.516 12.9853 105.864 12.1581C105.218 11.3309 104.894 10.2064 104.894 8.78457ZM106.908 8.95487C106.908 9.84691 107.082 10.5443 107.43 11.0471C107.783 11.5445 108.283 11.7932 108.929 11.7932C109.752 11.7932 110.354 11.4337 110.735 10.7146V6.96805C110.365 6.26523 109.769 5.91382 108.946 5.91382C108.294 5.91382 107.791 6.16791 107.438 6.67611C107.084 7.1789 106.908 7.93848 106.908 8.95487Z" fill="white"/>
<path d="M120.205 13.2367C120.116 13.0691 120.039 12.7961 119.973 12.4176C119.332 13.0718 118.548 13.3989 117.62 13.3989C116.72 13.3989 115.985 13.1475 115.416 12.6447C114.847 12.1419 114.563 11.5202 114.563 10.7795C114.563 9.84421 114.916 9.12787 115.623 8.63049C116.336 8.1277 117.352 7.87631 118.672 7.87631H119.907V7.30054C119.907 6.84641 119.777 6.48418 119.517 6.21387C119.258 5.93815 118.863 5.80028 118.332 5.80028C117.874 5.80028 117.498 5.91382 117.206 6.14088C116.913 6.36254 116.767 6.64637 116.767 6.99238H114.753C114.753 6.51122 114.916 6.06249 115.242 5.6462C115.568 5.22451 116.01 4.89473 116.568 4.65685C117.131 4.41897 117.758 4.30003 118.448 4.30003C119.498 4.30003 120.335 4.55953 120.959 5.07854C121.583 5.59214 121.903 6.31659 121.92 7.25188V11.2093C121.92 11.9986 122.033 12.6285 122.259 13.0988V13.2367H120.205ZM117.993 11.8175C118.39 11.8175 118.763 11.7229 119.111 11.5337C119.465 11.3445 119.73 11.0904 119.907 10.7714V9.11706H118.821C118.076 9.11706 117.515 9.24411 117.139 9.49821C116.764 9.7523 116.576 10.1118 116.576 10.5768C116.576 10.9552 116.703 11.258 116.957 11.485C117.217 11.7067 117.562 11.8175 117.993 11.8175Z" fill="white"/>
<path d="M127.032 10.4146L128.854 4.46222H131L127.438 14.5666C126.891 16.0426 125.963 16.7805 124.654 16.7805C124.361 16.7805 124.038 16.7319 123.684 16.6345V15.11L124.066 15.1343C124.574 15.1343 124.955 15.0424 125.209 14.8586C125.468 14.6802 125.673 14.3774 125.822 13.9503L126.112 13.1961L122.964 4.46222H125.134L127.032 10.4146Z" fill="white"/>
</svg>
