<svg width="81" height="16" viewBox="0 0 81 16" fill="none" xmlns="http://www.w3.org/2000/svg">
<path d="M3.32019 10.0218V14.8341H0.531738V1.17575H5.8112C6.82743 1.17575 7.71974 1.36336 8.48811 1.73859C9.26268 2.11382 9.85755 2.64852 10.2727 3.34269C10.6879 4.03061 10.8955 4.81546 10.8955 5.69725C10.8955 7.03556 10.44 8.09245 9.52913 8.86793C8.62443 9.63714 7.36963 10.0218 5.76473 10.0218H3.32019ZM3.32019 7.74224H5.8112C6.54859 7.74224 7.10938 7.56713 7.49356 7.21692C7.88395 6.86671 8.07914 6.3664 8.07914 5.71601C8.07914 5.04685 7.88395 4.5059 7.49356 4.09315C7.10318 3.6804 6.56408 3.46777 5.87626 3.45526H3.32019V7.74224Z" fill="white"/>
<path d="M18.2942 7.2263C17.9286 7.17627 17.6063 7.15126 17.3275 7.15126C16.3113 7.15126 15.6451 7.49834 15.3291 8.19251V14.8341H12.6429V4.68413H15.1804L15.2547 5.89424C15.7938 4.96243 16.5405 4.49652 17.4948 4.49652C17.7922 4.49652 18.0711 4.53717 18.3313 4.61847L18.2942 7.2263Z" fill="white"/>
<path d="M18.8425 9.66529C18.8425 8.65842 19.0346 7.761 19.4188 6.97302C19.803 6.18504 20.3545 5.5753 21.0733 5.14379C21.7983 4.71227 22.6379 4.49652 23.5922 4.49652C24.9492 4.49652 26.0553 4.91552 26.9105 5.75353C27.7718 6.59154 28.252 7.72973 28.3512 9.16811L28.3697 9.86228C28.3697 11.4195 27.9391 12.6702 27.0778 13.6146C26.2164 14.5526 25.0608 15.0217 23.6108 15.0217C22.1608 15.0217 21.002 14.5526 20.1345 13.6146C19.2732 12.6765 18.8425 11.4007 18.8425 9.78723V9.66529ZM21.5288 9.86228C21.5288 10.8254 21.7085 11.5633 22.0679 12.0761C22.4273 12.5827 22.9416 12.836 23.6108 12.836C24.2614 12.836 24.7696 12.5858 25.1351 12.0855C25.5007 11.5789 25.6835 10.7722 25.6835 9.66529C25.6835 8.72096 25.5007 7.98927 25.1351 7.4702C24.7696 6.95113 24.2552 6.6916 23.5922 6.6916C22.9354 6.6916 22.4273 6.95113 22.0679 7.4702C21.7085 7.98301 21.5288 8.78037 21.5288 9.86228Z" fill="white"/>
<path d="M33.6399 11.5227L35.5082 4.68413H38.3152L34.9226 14.8341H32.3572L28.9646 4.68413H31.7717L33.6399 11.5227Z" fill="white"/>
<path d="M42.3399 14.8341H39.6444V4.68413H42.3399V14.8341ZM39.4864 2.05754C39.4864 1.65104 39.6196 1.31646 39.886 1.0538C40.1587 0.79114 40.5274 0.659811 40.9921 0.659811C41.4507 0.659811 41.8163 0.79114 42.0889 1.0538C42.3616 1.31646 42.4979 1.65104 42.4979 2.05754C42.4979 2.47029 42.3585 2.80799 42.0796 3.07065C41.807 3.33331 41.4445 3.46464 40.9921 3.46464C40.5398 3.46464 40.1742 3.33331 39.8953 3.07065C39.6227 2.80799 39.4864 2.47029 39.4864 2.05754Z" fill="white"/>
<path d="M44.1431 9.68405C44.1431 8.10183 44.4932 6.84169 45.1934 5.90362C45.8998 4.96555 46.8634 4.49652 48.0841 4.49652C49.0631 4.49652 49.8718 4.86549 50.51 5.60344V0.425293H53.2055V14.8341H50.7796L50.6494 13.7553C49.9802 14.5995 49.1189 15.0217 48.0655 15.0217C46.8819 15.0217 45.9308 14.5526 45.212 13.6146C44.4994 12.6702 44.1431 11.3601 44.1431 9.68405ZM46.8293 9.88104C46.8293 10.8316 46.9935 11.5602 47.3219 12.0667C47.6503 12.5733 48.1275 12.8266 48.7533 12.8266C49.5836 12.8266 50.1692 12.4732 50.51 11.7666V7.761C50.1754 7.05432 49.596 6.70098 48.7719 6.70098C47.4768 6.70098 46.8293 7.761 46.8293 9.88104Z" fill="white"/>
<path d="M59.9164 15.0217C58.4416 15.0217 57.2395 14.5651 56.31 13.6521C55.3867 12.739 54.9251 11.5227 54.9251 10.003V9.74033C54.9251 8.72096 55.1203 7.81103 55.5106 7.01055C55.901 6.20381 56.4525 5.58468 57.1651 5.15317C57.8839 4.7154 58.7019 4.49652 59.619 4.49652C60.9946 4.49652 62.0759 4.93428 62.8629 5.80982C63.656 6.68535 64.0526 7.92673 64.0526 9.53396V10.6409H57.6484C57.7352 11.3038 57.9955 11.8354 58.4292 12.2356C58.8692 12.6358 59.4238 12.836 60.093 12.836C61.1278 12.836 61.9365 12.4576 62.5189 11.7009L63.8388 13.1924C63.436 13.7678 62.8907 14.2181 62.2029 14.5433C61.5151 14.8622 60.7529 15.0217 59.9164 15.0217ZM59.6097 6.6916C59.0768 6.6916 58.643 6.87296 58.3084 7.23568C57.98 7.5984 57.7693 8.11747 57.6763 8.79288H61.4129V8.57712C61.4005 7.97676 61.2394 7.51398 60.9295 7.18878C60.6197 6.85733 60.1797 6.6916 59.6097 6.6916Z" fill="white"/>
<path d="M71.2375 7.2263C70.8719 7.17627 70.5497 7.15126 70.2708 7.15126C69.2546 7.15126 68.5885 7.49834 68.2724 8.19251V14.8341H65.5862V4.68413H68.1237L68.1981 5.89424C68.7372 4.96243 69.4839 4.49652 70.4381 4.49652C70.7356 4.49652 71.0144 4.53717 71.2747 4.61847L71.2375 7.2263Z" fill="white"/>
<path d="M77.9855 12.0292C77.9855 11.6978 77.8213 11.4382 77.4929 11.2506C77.1707 11.0568 76.6502 10.8848 75.9314 10.7347C73.5395 10.2281 72.3436 9.2025 72.3436 7.65781C72.3436 6.75727 72.7123 6.00681 73.4497 5.40645C74.1932 4.79983 75.163 4.49652 76.3589 4.49652C77.6354 4.49652 78.6548 4.79983 79.4169 5.40645C80.1853 6.01306 80.5695 6.80104 80.5695 7.77038H77.8833C77.8833 7.38265 77.7594 7.0637 77.5115 6.81355C77.2636 6.55715 76.8764 6.42894 76.3496 6.42894C75.8973 6.42894 75.5472 6.53213 75.2993 6.73851C75.0515 6.94488 74.9275 7.20754 74.9275 7.52648C74.9275 7.82667 75.067 8.07057 75.3458 8.25818C75.6308 8.43954 76.108 8.59901 76.7772 8.7366C77.4464 8.86793 78.0103 9.01802 78.4689 9.18687C79.8879 9.71219 80.5974 10.6221 80.5974 11.9167C80.5974 12.8422 80.2039 13.5927 79.4169 14.168C78.63 14.7371 77.6137 15.0217 76.3682 15.0217C75.5255 15.0217 74.7757 14.8716 74.1189 14.5714C73.4682 14.265 72.957 13.8491 72.5852 13.3238C72.2134 12.7922 72.0275 12.22 72.0275 11.6071H74.5743C74.5991 12.0886 74.7757 12.4576 75.1041 12.714C75.4326 12.9704 75.8725 13.0986 76.424 13.0986C76.9383 13.0986 77.3256 13.0017 77.5859 12.8078C77.8523 12.6077 77.9855 12.3482 77.9855 12.0292Z" fill="white"/>
</svg>
