<svg width="135" height="46" viewBox="0 0 135 46" fill="none" xmlns="http://www.w3.org/2000/svg">
<path d="M19.1317 20.0614H29.9739V27.9124H19.1317V40.1851H10.8723V27.9124H0V20.0614H10.8723V8.30006H19.1317V20.0614Z" fill="#87E389"/>
<path d="M36.2181 23.6415L38.741 1.38212H63.2487V8.63145H45.8591L44.7778 18.0466C46.8402 16.9436 49.0326 16.3921 51.3553 16.3921C55.52 16.3921 58.7837 17.6856 61.1464 20.2725C63.509 22.8594 64.6904 26.479 64.6904 31.1315C64.6904 33.959 64.0897 36.4958 62.8883 38.7417C61.707 40.9677 60.0051 42.7023 57.7826 43.9456C55.56 45.1689 52.9371 45.7805 49.9136 45.7805C47.2706 45.7805 44.8179 45.2491 42.5553 44.1863C40.2927 43.1034 38.5007 41.5893 37.1792 39.6441C35.8778 37.699 35.187 35.4831 35.1069 32.9964H43.6966C43.8768 34.8213 44.5075 36.2451 45.5887 37.2678C46.69 38.2705 48.1216 38.7718 49.8836 38.7718C51.8458 38.7718 53.3575 38.07 54.4187 36.6662C55.4799 35.2424 56.0106 33.2371 56.0106 30.6502C56.0106 28.1635 55.3999 26.2585 54.1785 24.9349C52.9571 23.6114 51.2251 22.9496 48.9826 22.9496C46.9203 22.9496 45.2484 23.4911 43.9669 24.574L43.126 25.3561L36.2181 23.6415Z" fill="#87E389"/>
<path d="M99.68 27.0706C99.68 33.1268 98.4286 37.7591 95.9258 40.9677C93.4229 44.1762 89.7588 45.7805 84.9333 45.7805C80.1679 45.7805 76.5238 44.2063 74.0009 41.0579C71.4781 37.9095 70.1866 33.3975 70.1265 27.5218V19.4603C70.1265 13.344 71.388 8.70164 73.9108 5.53319C76.4537 2.36474 80.1078 0.780518 84.8732 0.780518C89.6386 0.780518 93.2828 2.35472 95.8056 5.50311C98.3285 8.63145 99.6199 13.1335 99.68 19.0091V27.0706ZM91.0002 18.227C91.0002 14.5974 90.4996 11.9603 89.4985 10.3159C88.5174 8.65151 86.9756 7.81929 84.8732 7.81929C82.8309 7.81929 81.3192 8.6114 80.3381 10.1956C79.377 11.7598 78.8664 14.2163 78.8064 17.5653V28.2137C78.8064 31.7832 79.2869 34.4403 80.248 36.1849C81.2291 37.9095 82.7909 38.7718 84.9333 38.7718C87.0557 38.7718 88.5874 37.9396 89.5285 36.2752C90.4696 34.6107 90.9601 32.0639 91.0002 28.6348V18.227Z" fill="#87E389"/>
<path d="M135 27.0706C135 33.1268 133.749 37.7591 131.246 40.9677C128.743 44.1762 125.079 45.7805 120.253 45.7805C115.488 45.7805 111.844 44.2063 109.321 41.0579C106.798 37.9095 105.507 33.3975 105.447 27.5218V19.4603C105.447 13.344 106.708 8.70164 109.231 5.53319C111.774 2.36474 115.428 0.780518 120.193 0.780518C124.959 0.780518 128.603 2.35472 131.126 5.50311C133.648 8.63145 134.94 13.1335 135 19.0091V27.0706ZM126.32 18.227C126.32 14.5974 125.82 11.9603 124.818 10.3159C123.837 8.65151 122.296 7.81929 120.193 7.81929C118.151 7.81929 116.639 8.6114 115.658 10.1956C114.697 11.7598 114.186 14.2163 114.126 17.5653V28.2137C114.126 31.7832 114.607 34.4403 115.568 36.1849C116.549 37.9095 118.111 38.7718 120.253 38.7718C122.376 38.7718 123.907 37.9396 124.849 36.2752C125.79 34.6107 126.28 32.0639 126.32 28.6348V18.227Z" fill="#87E389"/>
</svg>
