<svg width="63" height="47" viewBox="0 0 63 47" fill="none" xmlns="http://www.w3.org/2000/svg">
<path d="M9.46006 19.8447H13.8882C15.9968 19.8447 17.5591 19.281 18.5751 18.1535C19.5911 17.0261 20.099 15.5296 20.099 13.6642C20.099 11.8603 19.5911 10.4561 18.5751 9.45164C17.5783 8.44718 16.1981 7.94496 14.4345 7.94496C12.8435 7.94496 11.5112 8.41644 10.4377 9.35939C9.36422 10.2819 8.82748 11.4913 8.82748 12.9877H0.517572C0.517572 10.6508 1.10224 8.55993 2.27157 6.71501C3.46006 4.84959 5.10863 3.39415 7.21725 2.3487C9.34505 1.30324 11.6837 0.780518 14.2332 0.780518C18.6613 0.780518 22.131 1.91822 24.6422 4.19362C27.1534 6.44852 28.4089 9.56439 28.4089 13.5412C28.4089 15.5911 27.8243 17.477 26.655 19.199C25.4856 20.9209 23.9521 22.2431 22.0543 23.1655C24.4121 24.0675 26.1661 25.4204 27.3163 27.2244C28.4856 29.0283 29.0703 31.1602 29.0703 33.6201C29.0703 37.5969 27.7093 40.7845 24.9872 43.1829C22.2843 45.5813 18.6997 46.7805 14.2332 46.7805C10.0543 46.7805 6.63259 45.6018 3.96805 43.2444C1.32268 40.887 0 37.7712 0 33.8968H8.3099C8.3099 35.5778 8.89457 36.9512 10.0639 38.0171C11.2524 39.0831 12.7093 39.6161 14.4345 39.6161C16.4089 39.6161 17.9521 39.0626 19.0639 37.9557C20.1949 36.8282 20.7604 35.342 20.7604 33.4971C20.7604 29.0283 18.4601 26.7939 13.8594 26.7939H9.46006V19.8447Z" fill="#87E389"/>
<path d="M63 27.6549C63 33.8456 61.8019 38.5809 59.4057 41.8607C57.0096 45.1406 53.5016 46.7805 48.8818 46.7805C44.3195 46.7805 40.8307 45.1713 38.4153 41.953C36 38.7346 34.7636 34.1223 34.7061 28.1161V19.8754C34.7061 13.6232 35.9137 8.87767 38.3291 5.63881C40.7636 2.39995 44.262 0.780518 48.8243 0.780518C53.3866 0.780518 56.8754 2.3897 59.2907 5.60806C61.7061 8.80592 62.9425 13.408 63 19.4142V27.6549ZM54.6901 18.6147C54.6901 14.9044 54.2109 12.2088 53.2524 10.5278C52.3131 8.82642 50.8371 7.9757 48.8243 7.9757C46.869 7.9757 45.4217 8.78542 44.4824 10.4048C43.5623 12.0038 43.0735 14.5149 43.016 17.9383V28.8233C43.016 32.4721 43.476 35.1883 44.3962 36.9717C45.3355 38.7346 46.8307 39.6161 48.8818 39.6161C50.9137 39.6161 52.3802 38.7654 53.2811 37.0639C54.1821 35.3625 54.6518 32.7591 54.6901 29.2538V18.6147Z" fill="#87E389"/>
</svg>
