<svg width="132" height="45" viewBox="0 0 132 45" fill="none" xmlns="http://www.w3.org/2000/svg">
<path d="M18.6179 20.2205H29.169V27.897H18.6179V39.897H10.5803V27.897H0V20.2205H10.5803V8.7205H18.6179V20.2205Z" fill="#87E389"/>
<path d="M55.1317 44.1923H46.685V11.4276L36.6015 14.5746V7.66287L54.2257 1.30993H55.1317V44.1923Z" fill="#87E389"/>
<path d="M97.6285 26.4864C97.6285 32.408 96.4107 36.9374 93.975 40.0746C91.5394 43.2119 87.9737 44.7805 83.2778 44.7805C78.6404 44.7805 75.0941 43.2413 72.639 40.1629C70.1839 37.0844 68.9271 32.6727 68.8686 26.9276V19.0452C68.8686 13.0648 70.0962 8.52562 72.5513 5.42758C75.0259 2.32954 78.5819 0.780518 83.2193 0.780518C87.8568 0.780518 91.403 2.31973 93.8581 5.39816C96.3132 8.45699 97.57 12.8589 97.6285 18.604V26.4864ZM89.1817 17.8393C89.1817 14.2903 88.6946 11.7119 87.7204 10.104C86.7656 8.4766 85.2653 7.66287 83.2193 7.66287C81.2319 7.66287 79.7607 8.43738 78.806 9.9864C77.8707 11.5158 77.3738 13.9178 77.3154 17.1923V27.604C77.3154 31.0942 77.783 33.6923 78.7183 35.3982C79.6731 37.0844 81.1929 37.9276 83.2778 37.9276C85.3432 37.9276 86.8338 37.1139 87.7496 35.4864C88.6654 33.859 89.1428 31.3688 89.1817 28.0158V17.8393Z" fill="#87E389"/>
<path d="M132 26.4864C132 32.408 130.782 36.9374 128.347 40.0746C125.911 43.2119 122.345 44.7805 117.649 44.7805C113.012 44.7805 109.466 43.2413 107.01 40.1629C104.555 37.0844 103.299 32.6727 103.24 26.9276V19.0452C103.24 13.0648 104.468 8.52562 106.923 5.42758C109.397 2.32954 112.953 0.780518 117.591 0.780518C122.228 0.780518 125.775 2.31973 128.23 5.39816C130.685 8.45699 131.942 12.8589 132 18.604V26.4864ZM123.553 17.8393C123.553 14.2903 123.066 11.7119 122.092 10.104C121.137 8.4766 119.637 7.66287 117.591 7.66287C115.603 7.66287 114.132 8.43738 113.177 9.9864C112.242 11.5158 111.745 13.9178 111.687 17.1923V27.604C111.687 31.0942 112.155 33.6923 113.09 35.3982C114.045 37.0844 115.564 37.9276 117.649 37.9276C119.715 37.9276 121.205 37.1139 122.121 35.4864C123.037 33.859 123.514 31.3688 123.553 28.0158V17.8393Z" fill="#87E389"/>
</svg>
