<svg width="420" height="99" viewBox="0 0 420 99" fill="none" xmlns="http://www.w3.org/2000/svg">
<g clip-path="url(#clip0)">
<path d="M149.201 5.07935H158.197L158.43 7.79727H157.897C157.697 6.66231 157.664 6.45324 157.197 6.00523C156.731 5.55722 155.831 5.61696 155.098 5.61696H152.799C152.633 5.61696 152.499 5.64682 152.366 5.76629C152.266 5.88576 152.2 6.0351 152.233 6.18444V9.64904H153.232C153.732 9.64904 154.232 9.46984 154.532 9.1413C154.898 8.69329 155.098 8.12581 155.065 7.52847H155.598V12.3968H155.065C155.032 11.5904 154.865 11.0229 154.532 10.6645C154.165 10.3061 153.666 10.1269 153.132 10.1269H152.2V14.0395C152.2 14.159 152.266 14.3083 152.366 14.3979C152.533 14.4875 152.733 14.5473 152.933 14.5174H154.765C156.731 14.5174 157.864 13.9499 158.164 11.68H158.73L158.53 15.055H149.201V14.5174H149.701C149.934 14.5473 150.167 14.4875 150.367 14.3681C150.5 14.2486 150.567 14.0993 150.567 13.9499V6.15457C150.567 6.00523 150.534 5.8559 150.4 5.73643C150.267 5.64682 150.067 5.58709 149.867 5.58709H149.201V5.07935Z" fill="#32448C"/>
<path d="M158.03 8.39486H162.095V8.87273C161.795 8.84287 161.462 8.9026 161.162 8.9922C161.029 9.05194 160.962 9.17141 160.962 9.29088C160.962 9.38048 160.996 9.49995 161.029 9.58955L162.995 13.532L164.827 9.70902C164.861 9.64928 164.861 9.58955 164.861 9.49995C164.861 9.14154 164.494 8.93247 163.728 8.84287V8.36499H166.826V8.84287C166.56 8.84287 166.293 8.93247 166.093 9.08181C165.893 9.20127 165.76 9.38048 165.66 9.58955L162.928 15.2643H162.495L159.563 9.44021C159.496 9.26101 159.363 9.11167 159.163 8.9922C158.797 8.9026 158.43 8.84287 158.064 8.87273L158.03 8.39486Z" fill="#32448C"/>
<path d="M169.692 8.18557C170.658 8.1557 171.558 8.51411 172.224 9.17119C172.924 9.85814 173.29 10.784 173.257 11.7398C173.29 12.3969 173.124 13.0241 172.791 13.6214C172.491 14.1292 172.058 14.5473 171.491 14.846C170.925 15.1447 170.292 15.294 169.659 15.294C168.726 15.294 167.826 14.9356 167.193 14.3084C165.86 12.815 165.86 10.6944 167.193 9.20106C167.826 8.54397 168.726 8.18557 169.692 8.18557ZM169.692 8.69331C169.092 8.69331 168.559 8.96212 168.226 9.41013C167.86 9.888 167.66 10.6646 167.66 11.68C167.66 12.7254 167.86 13.502 168.226 14.0097C168.526 14.4577 169.092 14.7564 169.692 14.7564C170.292 14.7564 170.858 14.4876 171.191 14.0097C171.591 13.5318 171.758 12.7254 171.758 11.6203C171.758 10.575 171.558 9.85814 171.191 9.38026C170.858 8.96212 170.292 8.69331 169.692 8.69331Z" fill="#32448C"/>
<path d="M175.689 4.95996V14.0994C175.689 14.2188 175.723 14.3084 175.823 14.398C175.956 14.4876 176.123 14.5474 176.322 14.5474H176.789V15.085H173.191V14.5474H173.624C173.824 14.5474 174.024 14.5175 174.157 14.398C174.29 14.2786 174.357 14.1292 174.323 13.95V6.33386C174.357 6.15465 174.257 5.94558 174.123 5.82611C173.924 5.67678 173.657 5.58717 173.39 5.58717H172.724V5.04956L175.689 4.95996Z" fill="#32448C"/>
<path d="M179.488 8.27523V12.6956C179.455 13.1436 179.621 13.5916 179.954 13.95C180.254 14.2487 180.687 14.398 181.12 14.398C181.72 14.398 182.253 14.1591 182.62 13.7409C183.053 13.2929 183.253 12.7255 183.253 12.1281V9.61926C183.253 9.41019 183.153 9.20111 182.986 9.08165C182.653 8.93231 182.287 8.84271 181.92 8.87257V8.36483L184.552 8.24536V13.7409C184.552 13.95 184.619 14.1591 184.785 14.3383C184.985 14.4876 185.219 14.5474 185.452 14.5474H185.918V15.0252L183.419 15.085L183.253 13.7708C182.886 14.189 182.42 14.5474 181.92 14.846C181.52 15.085 181.02 15.2044 180.554 15.2044C179.921 15.2343 179.321 14.9954 178.855 14.6071C178.388 14.2188 178.155 13.5319 178.155 12.5761V9.67899C178.188 9.44005 178.055 9.20111 177.822 9.08165C177.522 8.96218 177.189 8.90244 176.856 8.93231V8.42456L179.488 8.27523Z" fill="#32448C"/>
<path d="M187.417 5.677H187.95V8.39493H192.481V9.05201H187.95V13.323C187.916 13.6217 188.016 13.9204 188.25 14.1892C188.45 14.3983 188.716 14.4879 188.983 14.4879C189.349 14.4879 189.682 14.3087 189.916 14.0398C190.215 13.5918 190.382 13.0841 190.349 12.5465H190.882C190.848 13.4425 190.615 14.0996 190.215 14.5177C189.816 14.9359 189.216 15.1748 188.583 15.1748C188.05 15.2047 187.55 15.0255 187.15 14.7268C186.784 14.3983 186.617 13.9801 186.617 13.5321V9.05201H185.318V8.54426C185.851 8.48453 186.317 8.24559 186.65 7.88718C187.183 7.2301 187.45 6.45355 187.417 5.677Z" fill="#32448C"/>
<path d="M190.882 8.39494L193.848 8.30534V14.0399C193.848 14.1593 193.881 14.2788 193.981 14.3684C194.114 14.458 194.281 14.5177 194.448 14.5177H194.981V15.0553H191.349V14.5177H191.815C192.015 14.5476 192.182 14.4879 192.315 14.3684C192.448 14.2489 192.482 14.0996 192.482 13.9204V9.85844C192.515 9.64937 192.415 9.41043 192.215 9.26109C192.015 9.11175 191.715 9.05202 191.449 9.05202H190.849V8.39494H190.882ZM192.948 5.229C193.181 5.229 193.415 5.31861 193.581 5.46794C193.748 5.61728 193.848 5.82635 193.848 6.03542C193.848 6.24449 193.748 6.45356 193.581 6.6029C193.215 6.90157 192.682 6.90157 192.315 6.6029C191.982 6.27436 191.982 5.79648 192.315 5.46794C192.515 5.31861 192.715 5.229 192.948 5.229Z" fill="#32448C"/>
<path d="M198.712 8.18557C199.679 8.1557 200.578 8.51411 201.244 9.17119C201.944 9.85814 202.311 10.784 202.277 11.7398C202.311 12.3969 202.144 13.0241 201.811 13.6214C201.511 14.1292 201.078 14.5473 200.511 14.846C199.945 15.1447 199.312 15.294 198.679 15.294C197.746 15.294 196.846 14.9356 196.213 14.3084C194.881 12.815 194.881 10.6944 196.213 9.20106C196.846 8.54397 197.779 8.18557 198.712 8.18557ZM198.712 8.69331C198.113 8.69331 197.579 8.96212 197.246 9.41013C196.88 9.888 196.68 10.6646 196.68 11.68C196.68 12.7254 196.88 13.502 197.246 14.0097C197.546 14.4577 198.113 14.7564 198.712 14.7564C199.312 14.7564 199.878 14.4876 200.212 14.0097C200.611 13.5318 200.778 12.7254 200.778 11.6203C200.778 10.575 200.578 9.85814 200.212 9.38026C199.912 8.96212 199.312 8.69331 198.712 8.69331Z" fill="#32448C"/>
<path d="M202.111 8.3947L204.576 8.24536C204.676 8.72324 204.776 9.23098 204.81 9.70886C205.109 9.26085 205.509 8.90244 205.976 8.63364C206.442 8.3947 206.975 8.27523 207.508 8.27523C207.942 8.27523 208.375 8.36483 208.741 8.54403C209.108 8.75311 209.374 9.02191 209.541 9.38032C209.741 9.76859 209.841 10.2166 209.841 10.6347V13.8903C209.807 14.0695 209.874 14.2786 210.007 14.398C210.174 14.5175 210.407 14.5772 210.607 14.5474H210.807V15.085H207.575V14.5474H207.642C207.908 14.5772 208.141 14.5175 208.375 14.398C208.508 14.2786 208.608 14.1292 208.575 13.95V11.0828C208.608 10.6049 208.475 10.127 208.241 9.70886C207.942 9.29072 207.442 9.05178 206.875 9.08165C206.276 9.08165 205.743 9.32058 205.376 9.73873C204.943 10.2166 204.743 10.8139 204.776 11.4412V13.9201C204.743 14.0994 204.81 14.3084 204.976 14.4279C205.143 14.5474 205.376 14.6071 205.609 14.5772H205.809V15.1148H202.477V14.5772H202.677C202.877 14.5772 203.11 14.5474 203.277 14.4279C203.41 14.3383 203.477 14.2188 203.477 14.0695V9.70886C203.51 9.46992 203.41 9.23098 203.21 9.05178C203.01 8.90244 202.744 8.81284 202.477 8.84271H202.111V8.3947Z" fill="#32448C"/>
<path d="M220.502 5.91572L221.168 4.87036H221.702L222.001 9.08165H221.502C221.102 7.88696 220.635 6.99094 220.102 6.45333C219.536 5.82612 218.67 5.43784 217.737 5.40797C217.07 5.40797 216.404 5.58718 215.871 5.94558C215.304 6.33386 214.871 6.87147 214.638 7.49868C214.305 8.33497 214.172 9.26085 214.205 10.1569C214.172 11.023 214.305 11.919 214.638 12.7553C214.871 13.3527 215.271 13.8903 215.838 14.2786C216.371 14.6071 216.97 14.7863 217.637 14.7564C218.436 14.8162 219.203 14.5474 219.802 14.0695C220.302 13.5916 220.602 12.9345 220.569 12.2775V11.2918C220.569 11.1425 220.502 11.023 220.369 10.9334C220.169 10.8438 219.936 10.7841 219.702 10.814H218.703V10.3062H223.234V10.814H222.901C222.668 10.7841 222.468 10.8438 222.268 10.9633C222.135 11.0529 222.068 11.2022 222.068 11.3814V15.3837H221.535C221.335 14.7564 221.135 14.1591 220.935 13.5916C220.602 14.1292 220.102 14.5772 219.503 14.9058C218.936 15.2044 218.303 15.3538 217.637 15.3538C216.67 15.3538 215.704 15.1148 214.871 14.6668C212.239 13.1735 211.373 10.0971 212.872 7.64802C213.339 6.8416 214.038 6.15466 214.905 5.67678C215.671 5.1989 216.571 4.95996 217.503 4.9301C218.003 4.9301 218.47 4.98983 218.936 5.16903C219.503 5.2885 220.036 5.55731 220.502 5.91572Z" fill="#32448C"/>
<path d="M231.164 14.5472L231.297 14.7563C231.297 15.1446 230.798 15.0849 230.331 15.0849C229.965 15.0849 229.265 15.055 228.998 14.9057C228.732 14.7563 228.665 14.5472 228.465 14.0992C228.099 14.4875 227.632 14.816 227.133 15.055C226.7 15.2342 226.233 15.2939 225.767 15.2939C225.134 15.3238 224.534 15.1745 224.034 14.8459C223.634 14.5771 223.434 14.159 223.434 13.711C223.434 13.024 223.901 12.4267 224.8 11.9787C225.933 11.4709 227.166 11.1424 228.432 11.0528V10.0373C228.432 9.67887 228.265 9.35033 227.932 9.11139C227.599 8.84258 227.166 8.72311 226.7 8.72311C226.3 8.72311 225.867 8.81272 225.5 8.99192C225.267 9.11139 225.134 9.26073 225.134 9.38019C225.167 9.49966 225.234 9.61913 225.333 9.70874C225.467 9.85807 225.533 10.0373 225.567 10.2165C225.567 10.4256 225.5 10.6048 225.333 10.7541C225.167 10.9034 224.967 10.9632 224.734 10.9632C224.467 10.9632 224.234 10.8736 224.067 10.7242C223.901 10.545 223.801 10.3359 223.801 10.097C223.801 9.61913 224.101 9.20099 224.7 8.81272C225.4 8.39457 226.2 8.1855 227.033 8.21537C227.766 8.1855 228.465 8.36471 229.065 8.72311C229.498 9.02179 229.765 9.49966 229.765 9.97754V13.5915C229.765 13.8006 229.798 14.0395 229.931 14.2187C230.031 14.3382 230.165 14.4576 230.365 14.4875C230.598 14.5174 230.898 14.5472 231.164 14.5472ZM228.399 11.5306C227.066 11.7098 226.1 11.9787 225.533 12.3371C225.1 12.6357 224.867 13.0837 224.9 13.5616C224.867 13.8902 225 14.1888 225.234 14.4278C225.467 14.6368 225.767 14.7264 226.066 14.7264C226.7 14.7264 227.266 14.4875 227.699 14.0992C228.166 13.6811 228.399 13.0837 228.399 12.4864V11.5306Z" fill="#32448C"/>
<path d="M230.897 8.39458L233.03 8.27511C233.13 8.75299 233.23 9.23086 233.263 9.67887C233.563 9.23086 233.996 8.87246 234.462 8.57378C234.862 8.36471 235.329 8.24524 235.795 8.24524C236.262 8.21537 236.695 8.36471 237.061 8.60365C237.461 8.93219 237.728 9.32046 237.828 9.79834C238.127 9.35033 238.527 8.93219 238.994 8.63352C239.427 8.39458 239.927 8.24524 240.426 8.24524C240.993 8.21537 241.559 8.39458 241.959 8.78285C242.426 9.32046 242.659 9.94768 242.625 10.6346V13.9499C242.592 14.0992 242.659 14.2486 242.792 14.368C242.992 14.4875 243.225 14.5472 243.458 14.5174H243.792V15.055H240.06V14.5174H240.426C240.66 14.5472 240.893 14.4875 241.093 14.368C241.226 14.2486 241.293 14.0992 241.293 13.9499V10.6346C241.326 10.2165 241.193 9.79834 240.893 9.4698C240.626 9.201 240.227 9.05166 239.827 9.05166C239.494 9.05166 239.194 9.14126 238.927 9.2906C238.661 9.4698 238.427 9.70874 238.294 9.97755C238.094 10.3061 237.994 10.6645 237.961 11.0528V13.92C237.961 14.0694 237.994 14.2486 238.127 14.368C238.294 14.4576 238.461 14.5174 238.661 14.5174H239.16V15.055H235.362V14.5174H235.795C235.995 14.5174 236.228 14.4875 236.395 14.368C236.528 14.2784 236.595 14.159 236.595 14.0096V10.9632C236.628 10.4554 236.495 9.97755 236.195 9.52954C235.962 9.23086 235.562 9.08153 235.162 9.08153C234.662 9.05166 234.196 9.26073 233.863 9.58927C233.43 10.0671 233.196 10.6645 233.23 11.2917V13.9499C233.196 14.0992 233.263 14.2486 233.396 14.368C233.596 14.4875 233.829 14.5472 234.063 14.5174H234.462V15.055H230.698V14.5174H231.264C231.431 14.5174 231.63 14.4875 231.764 14.368C231.864 14.2784 231.93 14.1291 231.93 14.0096V9.64901C231.964 9.43993 231.864 9.26073 231.73 9.11139C231.497 8.96206 231.197 8.87246 230.897 8.87246V8.39458Z" fill="#32448C"/>
<path d="M243.991 8.39494L246.657 8.30534V14.0399C246.657 14.1593 246.69 14.2788 246.79 14.3684C246.923 14.458 247.09 14.5177 247.257 14.5177H248.09V15.0553H243.525V14.5177H244.624C244.824 14.5476 244.991 14.4879 245.124 14.3684C245.257 14.2489 245.291 14.0996 245.291 13.9204V9.73897C245.324 9.5299 245.224 9.29096 245.024 9.14162C244.824 8.99229 244.524 8.93255 244.258 8.93255H243.958L243.991 8.39494ZM245.757 5.229C245.99 5.229 246.224 5.31861 246.39 5.46794C246.557 5.61728 246.657 5.82635 246.657 6.03542C246.657 6.24449 246.557 6.45356 246.39 6.6029C246.024 6.90157 245.491 6.90157 245.124 6.6029C244.791 6.27436 244.791 5.79648 245.124 5.46794C245.324 5.31861 245.524 5.229 245.757 5.229Z" fill="#32448C"/>
<path d="M247.857 8.3947L250.322 8.24536C250.422 8.72324 250.522 9.23098 250.555 9.70886C250.855 9.26085 251.255 8.90244 251.721 8.63364C252.188 8.3947 252.721 8.27523 253.254 8.27523C253.687 8.27523 254.12 8.36483 254.487 8.54403C254.853 8.75311 255.12 9.02191 255.287 9.38032C255.486 9.76859 255.586 10.2166 255.586 10.6347V13.8903C255.553 14.0695 255.62 14.2786 255.753 14.398C255.92 14.5175 256.153 14.5772 256.353 14.5474H256.586V15.085H253.287V14.5474H253.354C253.621 14.5772 253.854 14.5175 254.087 14.398C254.22 14.2786 254.32 14.1292 254.287 13.95V11.0828C254.32 10.6049 254.187 10.127 253.954 9.70886C253.654 9.29072 253.154 9.05178 252.588 9.08165C251.988 9.08165 251.455 9.32058 251.088 9.73873C250.655 10.2166 250.455 10.8139 250.489 11.4412V13.9201C250.455 14.0994 250.522 14.3084 250.689 14.4279C250.855 14.5474 251.088 14.6071 251.288 14.5772H251.488V15.1148H247.857V14.5772H248.356C248.556 14.5772 248.789 14.5474 248.956 14.4279C249.089 14.3383 249.156 14.2188 249.156 14.0695V9.70886C249.189 9.46992 249.089 9.23098 248.889 9.05178C248.69 8.90244 248.423 8.81284 248.156 8.84271H247.757L247.857 8.3947Z" fill="#32448C"/>
<path d="M262.283 8.75319C262.817 8.27531 264.283 7.55849 264.782 7.55849C265.049 7.52862 265.315 7.58836 265.549 7.7377C265.715 7.88703 265.415 8.24544 265.415 8.45451C265.415 8.60385 265.349 8.78305 265.249 8.90252C265.149 9.02199 264.982 9.08173 264.849 9.08173C264.549 9.08173 264.349 8.90252 264.249 8.57398C264.216 8.42464 264.149 8.36491 264.049 8.36491C263.583 8.51425 263.116 8.75318 262.75 9.05186C262.95 9.26093 263.116 9.52974 263.216 9.79854C263.316 10.0076 263.35 10.2466 263.35 10.4556C263.35 10.8439 263.25 11.2322 263.016 11.5607C262.75 11.9191 262.35 12.2178 261.917 12.397C261.45 12.6359 260.951 12.7554 260.418 12.7554H259.551C259.118 12.7255 258.718 12.7853 258.319 12.9346C258.119 13.0541 258.019 13.2333 258.019 13.4424C258.019 13.6216 258.119 13.7709 258.252 13.8605C258.552 13.98 258.852 14.0397 259.185 14.0098L261.151 13.98C262.15 13.98 262.85 14.1293 263.283 14.428C263.716 14.6968 263.983 15.1747 263.949 15.6525C263.949 16.22 263.683 16.7278 263.216 17.0862C262.517 17.6238 261.484 17.9225 260.118 17.9225C258.985 17.9225 258.119 17.7432 257.586 17.355C257.186 17.1459 256.953 16.7576 256.919 16.3694C256.919 16.0707 257.086 15.8019 257.319 15.5928C257.719 15.324 258.219 15.1448 258.718 15.0851C258.285 14.9955 257.885 14.8461 257.519 14.5773C257.252 14.3682 257.119 14.0696 257.119 13.741C257.119 13.4424 257.252 13.1735 257.452 12.9346C257.752 12.6658 258.152 12.4567 258.552 12.3373C258.152 12.1581 257.785 11.8594 257.552 11.5308C257.319 11.2023 257.219 10.814 257.219 10.4556C257.219 9.82841 257.519 9.23106 258.052 8.84279C258.685 8.39478 259.451 8.15584 260.251 8.18571C260.618 8.18571 260.984 8.24544 261.317 8.33504C261.65 8.42464 261.984 8.57398 262.283 8.75319ZM260.651 15.0851C259.685 15.0851 258.985 15.2045 258.552 15.4435C258.185 15.6227 257.952 15.9512 257.919 16.3096C257.919 16.6083 258.085 16.907 258.385 17.0563C258.918 17.3251 259.551 17.4744 260.151 17.4147C260.851 17.4446 261.584 17.3251 262.217 16.9966C262.683 16.7278 262.916 16.4291 262.916 16.1005C262.916 15.8915 262.85 15.7123 262.717 15.5629C262.55 15.3837 262.317 15.2344 262.05 15.1747C261.584 15.1149 261.117 15.0552 260.651 15.0851ZM260.184 8.63372C259.751 8.63372 259.318 8.78305 259.018 9.11159C258.685 9.47 258.518 9.94788 258.552 10.4258C258.518 10.9335 258.685 11.4114 259.018 11.8295C259.551 12.397 260.551 12.4866 261.184 11.9789C261.251 11.9191 261.317 11.8893 261.351 11.8295C261.684 11.4412 261.85 10.9335 261.817 10.4556C261.85 9.97775 261.684 9.49987 261.351 9.14146C261.084 8.81292 260.651 8.63372 260.184 8.63372Z" fill="#32448C"/>
<path d="M265.049 7.61841C265.282 7.61841 265.515 7.70801 265.682 7.85735C265.848 8.00668 265.948 8.21575 265.948 8.42483C265.948 8.6339 265.848 8.84297 265.682 8.99231C265.315 9.29098 264.782 9.29098 264.416 8.99231C264.082 8.66377 264.082 8.18589 264.416 7.85735C264.616 7.67814 264.815 7.61841 265.049 7.61841Z" fill="#32448C"/>
<path d="M146.036 15.1448H145.87V14.9059H145.936C146.003 14.9059 146.036 14.9059 146.103 14.9059C146.136 14.9357 146.17 14.9656 146.17 14.9955C146.203 15.0851 146.136 15.1149 146.036 15.1448C146.036 15.1149 146.036 15.1149 146.036 15.1448ZM146.336 15.0253C146.336 14.9656 146.303 14.876 146.236 14.8461C146.17 14.7864 146.07 14.7864 145.97 14.7864H145.703V15.5629H145.87V15.2643H146.003L146.17 15.5629H146.336L146.136 15.2643C146.303 15.2045 146.37 15.1149 146.336 15.0253ZM146.036 15.772C145.67 15.772 145.37 15.5032 145.37 15.1747C145.37 14.8461 145.67 14.5773 146.036 14.5773C146.403 14.5773 146.703 14.8461 146.703 15.1747C146.703 15.5032 146.403 15.772 146.036 15.772ZM146.036 14.428C145.57 14.428 145.203 14.7565 145.203 15.1747C145.203 15.5928 145.57 15.9213 146.036 15.9213C146.503 15.9213 146.869 15.5928 146.869 15.1747C146.869 14.7565 146.469 14.428 146.036 14.428Z" fill="#32448C"/>
<path d="M137.273 4.75085C141.238 2.83935 146.369 4.84046 146.736 9.67896C139.406 10.1867 138.506 7.22984 137.273 4.75085Z" fill="#32448C"/>
<path d="M137.273 15.085C141.238 16.9965 146.336 14.9656 146.736 10.1569C139.406 9.61932 138.506 12.606 137.273 15.085Z" fill="#32448C"/>
<path d="M145.37 6.24453C143.471 4.03435 140.006 3.37727 137.273 4.75117C138.373 6.96135 139.206 9.58967 144.637 9.739C145.303 8.69365 145.57 7.46909 145.37 6.24453ZM138.606 12.6361C138.773 12.6361 138.906 12.666 139.073 12.666C141.205 12.666 143.171 11.7102 144.37 10.1273C141.105 10.2766 139.572 11.322 138.606 12.6361Z" fill="#32448C"/>
</g>
<g clip-path="url(#clip1)">
<path d="M9.4396 3.04492C4.22617 3.04492 0 6.83337 0 11.5223C0 12.3608 0.138563 13.1837 0.415689 13.9755C0.588893 13.7582 0.762096 13.5408 0.91798 13.3234C1.57615 12.4539 2.21701 11.5845 2.85786 10.6994L3.32551 10.0318C3.48139 9.81444 3.63728 9.58154 3.77584 9.36417C4.08761 8.91391 4.38205 8.46364 4.65918 8.01338C4.79774 7.78048 4.9363 7.56311 5.09219 7.33021C5.24807 7.09732 5.36931 6.87995 5.50788 6.64705C5.64644 6.41416 5.785 6.18126 5.90625 5.96389L6.28729 5.2652L6.32193 5.21862C6.52978 4.84599 7.03207 4.69072 7.46508 4.86151C7.77684 5.01678 7.96737 5.31178 7.95005 5.63783C7.95005 6.04152 7.86345 6.46073 7.82881 6.86442C7.79417 7.26811 7.77685 7.68732 7.7422 8.10653C7.70756 8.92943 7.69024 9.76786 7.69024 10.5908C7.69024 11.4137 7.7422 12.2366 7.82881 13.0284C7.88077 13.4166 7.95005 13.8047 8.03665 14.1929C8.10593 14.5345 8.22717 14.8761 8.40038 15.1866C8.45234 15.2797 8.52162 15.3729 8.60822 15.4505C8.66018 15.4816 8.62554 15.4661 8.66018 15.4661C8.69482 15.4661 8.6775 15.4661 8.69483 15.4661L8.72947 15.4505H8.74679L8.79875 15.435C8.81607 15.4195 8.85071 15.404 8.86803 15.3884C9.00659 15.2953 9.12783 15.1866 9.24908 15.0624C9.5262 14.7674 9.78601 14.4724 10.0112 14.1463C10.2537 13.8203 10.4788 13.4632 10.704 13.106C11.1543 12.3918 11.57 11.6621 11.9684 10.9168C12.1589 10.5442 12.3667 10.1715 12.5573 9.79891C12.7478 9.42628 12.9383 9.03812 13.1115 8.66549C13.2847 8.27733 13.787 8.09101 14.22 8.24627C14.4971 8.33943 14.6877 8.5568 14.7396 8.82075C14.7396 8.91391 14.757 9.03812 14.7743 9.16233L14.8089 9.51944C14.8436 9.75234 14.8782 9.98523 14.9302 10.2181C15.0168 10.6839 15.1207 11.1497 15.2592 11.6C15.3978 12.0502 15.571 12.5005 15.7789 12.9353C15.9867 13.37 16.2465 13.7737 16.5756 14.1463C16.6449 14.2395 16.6276 14.3637 16.541 14.4258C16.4543 14.4879 16.3331 14.4879 16.2638 14.4258C15.8308 14.0842 15.4498 13.696 15.1207 13.2768C14.7916 12.8576 14.5145 12.4074 14.2547 11.9571C14.0815 11.6466 13.9429 11.336 13.787 11.0255C13.6831 11.2118 13.5965 11.3981 13.4926 11.5689C13.0769 12.3297 12.6612 13.0905 12.1762 13.8513C11.9511 14.2239 11.7086 14.5966 11.4314 14.9692C11.1543 15.3574 10.8426 15.73 10.5135 16.0716C10.3229 16.2734 10.0978 16.4442 9.87261 16.615C9.80333 16.6616 9.73405 16.7082 9.64744 16.7392L9.49156 16.8169L9.40496 16.8479H9.38764L9.33568 16.8634H9.30104L9.23176 16.879C9.17979 16.8945 9.14515 16.91 9.09319 16.91C8.98927 16.9255 8.88535 16.9411 8.78143 16.9566C8.55626 16.9721 8.31378 16.9411 8.10593 16.879C7.89809 16.8169 7.70756 16.7082 7.53436 16.584C7.27455 16.3821 7.04939 16.1337 6.89351 15.8542C6.65102 15.4195 6.47782 14.9537 6.3739 14.4724C6.26997 14.0376 6.20069 13.5874 6.14873 13.1526C6.04481 12.2831 6.01017 11.4292 5.99285 10.5597C5.99285 10.156 5.99285 9.73681 5.99285 9.33312C5.81964 9.62812 5.64644 9.92313 5.47324 10.2026C5.33467 10.4355 5.19611 10.6684 5.04023 10.9013L4.60722 11.6C4.01833 12.5316 3.41211 13.4476 2.77126 14.3637C2.37289 14.9537 1.9572 15.5437 1.54151 16.1182C4.39937 20.0308 10.2537 21.1177 14.6184 18.5558C18.9831 15.994 20.1955 10.746 17.3377 6.83337C15.5883 4.48888 12.6265 3.04492 9.4396 3.04492Z" fill="#32448C"/>
<path d="M27.0546 14.5656V8.94498H26.8988L24.8896 14.5656H24.3873L22.3781 8.94498H22.2222V14.5656H21.3909V8.35498H22.8631L24.6471 13.2924L26.3965 8.35498H27.886V14.5811H27.0546V14.5656Z" fill="#32448C"/>
<path d="M29.0984 9.16235V8.35498H29.999V9.16235H29.0984ZM29.1157 14.5655V9.76788H29.999V14.5655H29.1157Z" fill="#32448C"/>
<path d="M35.351 12.9972C35.351 13.9288 34.9526 14.643 33.2206 14.643C31.0382 14.643 30.917 13.5251 30.917 12.1588C30.917 10.7925 31.0382 9.67456 33.2206 9.67456C34.9526 9.67456 35.351 10.3888 35.351 11.3204H34.5196C34.5196 10.5596 34.2252 10.1869 33.2206 10.1869C31.8696 10.1869 31.8003 10.839 31.8003 12.1433C31.8003 13.4475 31.8696 14.0996 33.2206 14.0996C34.2252 14.0996 34.5196 13.727 34.5196 12.9662L35.351 12.9972Z" fill="#32448C"/>
<path d="M37.0653 10.2803C37.481 10.0474 38.0179 9.73686 38.5202 9.72134C38.6241 9.70581 38.728 9.70581 38.832 9.70581C38.9705 9.70581 39.0918 9.70581 39.2477 9.72134L39.1784 10.2958C39.0398 10.2803 38.9186 10.2803 38.7973 10.2803C38.6934 10.2803 38.5895 10.2803 38.4682 10.2958C38.0006 10.3113 37.4983 10.6219 37.1346 10.8082V14.5811H36.2512V9.76792H36.944L37.0653 10.2803Z" fill="#32448C"/>
<path d="M44.2011 12.1744C44.2011 13.5407 44.0799 14.6586 41.8629 14.6586C39.6459 14.6586 39.5247 13.5407 39.5247 12.1744C39.5247 10.8081 39.6459 9.69019 41.8629 9.69019C44.0799 9.69019 44.2011 10.8081 44.2011 12.1744ZM40.408 12.1744C40.408 13.4786 40.4773 14.1307 41.8629 14.1307C43.2485 14.1307 43.3178 13.4942 43.3178 12.1744C43.3178 10.8547 43.2485 10.2181 41.8629 10.2181C40.4773 10.2181 40.408 10.8547 40.408 12.1744Z" fill="#32448C"/>
<path d="M45.8123 15.6834C46.1414 15.7144 46.5744 15.73 47.0594 15.73C48.4104 15.73 48.5836 15.4039 48.6009 14.1307C48.2026 14.3326 47.6483 14.5655 47.0767 14.581C45.1195 14.6121 44.9983 13.6649 44.9983 12.1744C44.9983 10.6839 45.1022 9.69019 46.9901 9.69019C47.631 9.69019 48.2199 9.95413 48.6875 10.2181L48.7741 9.78334H49.4669V14.0376C49.4669 15.761 49.0339 16.2889 47.2673 16.2889C46.7476 16.2889 46.228 16.2423 45.7257 16.1802L45.8123 15.6834ZM48.6009 10.6528C48.2199 10.4355 47.7349 10.2181 47.2673 10.2181C45.9682 10.2181 45.8816 10.8702 45.8816 12.1744C45.8816 13.4476 45.9682 14.0531 47.2673 14.0531C47.7349 14.0531 48.2372 13.8202 48.6009 13.6494V10.6528Z" fill="#32448C"/>
<path d="M54.2651 14.5655L54.1785 14.1307C53.7455 14.3792 53.1739 14.6586 52.5504 14.6586C50.5932 14.6897 50.4719 13.696 50.4719 12.1744C50.4719 10.6528 50.5758 9.69019 52.5157 9.69019C53.1566 9.69019 53.7282 9.95413 54.1612 10.187L54.2478 9.76782H54.9406V14.5655H54.2651ZM54.0919 10.6218C53.7282 10.4355 53.2259 10.2181 52.7582 10.2181C51.4592 10.2181 51.3726 10.8702 51.3726 12.1744C51.3726 13.4786 51.4592 14.1307 52.7582 14.1307C53.2259 14.1307 53.7108 13.8978 54.0919 13.696V10.6218Z" fill="#32448C"/>
<path d="M56.8107 10.187C57.209 9.96967 57.746 9.70572 58.3175 9.6902C59.2182 9.65915 59.6858 9.87652 59.911 10.2181C60.3267 9.9852 60.8809 9.70572 61.4872 9.6902C63.3231 9.64362 63.427 10.482 63.427 11.6465V14.5655H62.5437V11.6931C62.5437 10.6994 62.4744 10.2181 61.2793 10.2181C60.8463 10.2181 60.396 10.451 60.0322 10.6528C60.1188 10.9944 60.1535 11.3515 60.1362 11.7086V14.581H59.3741V11.6931C59.3741 10.6994 59.3048 10.2181 58.1097 10.2181C57.694 10.2181 57.2437 10.451 56.8973 10.6218V14.5655H56.0139V9.76783H56.7067L56.8107 10.187Z" fill="#32448C"/>
<path d="M64.5354 9.16235V8.35498H65.4361V9.16235H64.5354ZM64.5527 14.5655V9.76788H65.4361V14.5655H64.5527Z" fill="#32448C"/>
<path d="M67.307 10.1872C67.74 9.9698 68.3116 9.70585 68.9351 9.69033C70.8923 9.64375 71.0135 10.4822 71.0135 11.6467V14.5656H70.1302V11.6932C70.1302 10.6995 70.0436 10.2182 68.7446 10.2182C68.2769 10.2182 67.7747 10.4511 67.4109 10.6374V14.5811H66.5276V9.76796H67.2204L67.307 10.1872Z" fill="#32448C"/>
<path d="M72.7281 15.6834C73.0572 15.7144 73.4902 15.73 73.9752 15.73C75.3262 15.73 75.4994 15.4039 75.5167 14.1307C75.1183 14.3326 74.5641 14.5655 73.9925 14.581C72.0353 14.6121 71.9141 13.6649 71.9141 12.1744C71.9141 10.6839 72.018 9.69019 73.9059 9.69019C74.5468 9.69019 75.1357 9.95413 75.6033 10.2181L75.6899 9.78334H76.3827V14.0376C76.3827 15.761 75.9497 16.2889 74.183 16.2889C73.6634 16.2889 73.1438 16.2423 72.6415 16.1802L72.7281 15.6834ZM75.4994 10.6528C75.1183 10.4355 74.6334 10.2181 74.1657 10.2181C72.8667 10.2181 72.7801 10.8702 72.7801 12.1744C72.7801 13.4476 72.8667 14.0531 74.1657 14.0531C74.6334 14.0531 75.1357 13.8202 75.4994 13.6494V10.6528Z" fill="#32448C"/>
</g>
<g clip-path="url(#clip2)">
<path d="M344.083 3.13232C345.938 2.54342 347.793 1.95452 349.648 1.4834C349.648 2.89676 349.648 4.4279 349.648 5.84127C350.443 5.84127 351.37 5.84127 352.165 5.84127C352.165 6.90129 352.165 8.07909 352.165 9.13912C351.37 9.13912 350.443 9.13912 349.648 9.13912C349.648 10.3169 349.648 11.3769 349.648 12.5547C349.648 13.0259 349.913 13.6148 350.443 13.8503C350.973 13.9681 351.635 13.8503 352.165 13.7325C352.165 14.7926 352.165 15.9704 352.165 17.0304C350.575 17.5015 348.986 17.7371 347.263 17.6193C346.203 17.5015 345.276 17.0304 344.746 16.2059C344.083 15.3815 343.951 14.3214 343.951 13.3792C343.951 11.9658 343.951 10.5525 343.951 9.13912C343.288 9.13912 342.626 9.13912 341.963 9.13912C341.963 8.07909 341.963 6.90129 341.963 5.84127C342.626 5.84127 343.288 5.84127 343.951 5.84127C344.083 4.89903 343.951 3.95678 344.083 3.13232Z" fill="#32448C"/>
<path d="M353.623 2.19046C355.478 1.60156 357.466 1.60156 359.32 1.60156C361.043 1.71934 362.898 2.07268 364.223 3.13271C365.945 4.54607 366.078 7.25502 364.223 8.66838C363.693 9.02172 363.163 9.25728 362.633 9.49284C363.428 9.7284 364.223 10.0817 364.885 10.6706C365.813 11.6129 365.945 13.0263 365.68 14.2041C365.415 15.2641 364.488 16.2063 363.295 16.6774C361.308 17.6197 358.923 17.6197 356.671 17.5019C355.611 17.3841 354.551 17.2663 353.623 17.0308C353.623 15.853 353.623 14.6752 353.623 13.3796C355.346 13.8507 357.333 14.2041 359.056 13.8507C360.248 13.6152 360.38 11.8485 359.188 11.3773C357.996 10.9062 356.671 11.024 355.478 11.2595C355.478 10.0817 355.478 9.02172 355.478 7.84392C356.406 7.84392 357.333 7.9617 358.393 7.84392C358.923 7.72614 359.585 7.49058 359.718 6.90168C359.85 6.43056 359.718 5.95943 359.453 5.60609C359.056 5.25275 358.393 5.01719 357.863 5.01719C356.406 4.89941 355.081 5.13497 353.756 5.60609C353.623 4.54607 353.623 3.36827 353.623 2.19046Z" fill="#32448C"/>
<path d="M382.374 1.83691C386.084 1.83691 389.794 1.83691 393.371 1.83691C393.371 3.01472 393.371 4.19252 393.371 5.37032C391.384 5.37032 389.396 5.37032 387.409 5.37032C387.409 6.19478 387.409 6.90147 387.409 7.72593C388.469 7.72593 389.661 7.60815 390.721 7.84371C392.311 8.31483 393.503 9.49263 393.768 10.906C394.166 12.2016 394.033 13.7327 393.238 15.0283C392.444 16.2061 391.119 16.9128 389.661 17.1484C387.144 17.7373 384.494 17.3839 381.977 16.795C381.977 15.6172 381.977 14.4394 381.977 13.2616C383.566 13.6149 385.289 13.9683 386.879 13.4972C388.204 13.1438 388.469 11.3771 387.409 10.5527C386.746 10.0815 385.951 9.96375 385.156 9.96375C384.229 9.96375 383.434 10.0815 382.507 10.1993C382.374 10.1993 382.109 10.3171 381.977 10.4349C381.977 10.3171 382.109 10.1993 382.109 10.0815C382.374 7.49037 382.374 4.66364 382.374 1.83691Z" fill="#32448C"/>
<path d="M334.279 14.0865C333.882 13.851 333.882 13.3798 333.749 12.9087C336.399 12.9087 338.916 12.9087 341.566 12.9087C341.566 12.0842 341.566 11.2598 341.434 10.4353C341.301 9.13974 340.771 7.72638 339.579 6.78413C338.519 5.84189 336.929 5.48855 335.339 5.60633C333.352 5.60633 331.232 5.95967 329.774 7.25526C328.45 8.55084 328.052 10.3175 328.185 12.0842C328.317 13.6154 328.847 15.2643 330.304 16.3243C331.762 17.5021 333.882 17.7377 335.737 17.7377C337.459 17.7377 339.181 17.6199 340.771 17.031C340.771 16.0888 340.771 15.0288 340.771 14.0865C339.446 14.6754 337.989 14.7932 336.532 14.7932C335.869 14.6754 334.942 14.5576 334.279 14.0865ZM334.279 8.66862C334.677 8.07972 335.869 8.07972 336.267 8.66862C336.664 9.25752 336.664 9.84642 336.664 10.5531C335.737 10.5531 334.677 10.5531 333.749 10.5531C333.882 9.84642 333.882 9.13974 334.279 8.66862Z" fill="#32448C"/>
<path d="M325.667 6.78375C324.474 5.60595 322.487 5.25261 320.897 5.72373C319.97 5.95929 319.307 6.54819 318.645 7.25488C318.645 5.01705 318.645 2.89701 318.645 0.65918C316.79 0.65918 314.935 0.65918 313.08 0.65918C313.08 6.19485 313.08 11.8483 313.08 17.384C314.802 17.384 316.525 17.384 318.38 17.384C318.38 16.6773 318.38 15.9706 318.38 15.2639C318.777 15.9706 319.175 16.6773 319.837 17.0306C320.897 17.6195 322.222 17.7373 323.415 17.5018C324.607 17.2662 325.667 16.5595 326.197 15.4995C326.992 14.0861 327.257 12.555 327.257 11.0238C327.257 9.4927 326.859 7.96156 325.667 6.78375ZM320.897 13.4972C320.5 14.0861 319.44 14.0861 319.042 13.4972C318.645 12.9083 318.645 12.3194 318.645 11.6127C318.645 11.0238 318.645 10.4349 318.91 9.84604C318.91 9.4927 319.175 9.13936 319.705 9.02158C320.235 8.9038 320.765 9.13936 321.03 9.4927C321.427 10.0816 321.427 10.7883 321.427 11.495C321.427 12.2016 321.295 12.9083 320.897 13.4972Z" fill="#32448C"/>
<path d="M380.519 9.7282C379.724 8.31483 378.002 7.37259 376.279 7.25481C374.822 7.13703 373.364 7.37259 372.172 8.19705C372.172 7.60815 372.305 7.01925 372.702 6.54813C373.232 5.72367 374.159 5.37033 375.087 5.25255C376.677 5.13477 378.267 5.37033 379.724 5.72367C379.724 4.54587 379.724 3.36806 379.724 2.19026C377.869 1.71914 375.882 1.71914 374.027 1.83692C371.907 1.9547 369.92 2.77916 368.595 4.19252C367.005 5.95923 366.475 8.19705 366.475 10.4349C366.475 12.2016 367.137 14.0861 368.462 15.4994C369.522 16.795 371.245 17.6195 373.1 17.855C375.219 18.0906 377.339 17.7373 379.062 16.5595C380.254 15.8528 380.917 14.675 381.182 13.3794C381.182 11.966 381.182 10.7882 380.519 9.7282ZM375.484 13.6149C374.954 14.4394 373.364 14.5572 372.702 13.8505C372.04 13.2616 372.04 12.3194 372.172 11.6127C372.305 11.0238 372.702 10.5527 373.232 10.3171C374.027 10.0815 375.087 10.3171 375.484 10.906C376.147 11.7305 376.147 12.7905 375.484 13.6149Z" fill="#32448C"/>
</g>
<path d="M85.4829 88.5873C77.8665 88.5873 71.6702 83.0432 71.6702 76.2284C71.6702 69.4137 77.8665 63.8696 85.4829 63.8696C93.0995 63.8696 99.2959 69.4137 99.2959 76.2284C99.2959 83.0432 93.0995 88.5873 85.4829 88.5873ZM85.4829 65.3898C78.8047 65.3898 73.3608 70.2532 73.3608 76.236C73.3608 82.2188 78.7963 87.0823 85.4829 87.0823C92.1696 87.0823 97.6051 82.2188 97.6051 76.236C97.6051 70.2532 92.1611 65.3898 85.4829 65.3898Z" fill="#32448C"/>
<path d="M81.9592 61.1391C81.9592 61.1693 81.9168 61.1769 81.9083 61.1467C81.528 59.6641 78.0875 53.4695 77.7324 53.5906C77.3267 53.7193 78.0706 60.0801 78.6116 61.9559C78.6201 61.9861 78.5777 61.9937 78.5608 61.971C76.16 58.5447 73.3957 58.6129 72.8632 58.6809C72.8294 58.6884 72.8294 58.7262 72.8547 58.7338C76.1685 60.2617 77.7662 64.6259 77.9184 65.057C77.9268 65.0721 77.9437 65.0797 77.9691 65.0721C79.8119 64.0738 81.9254 63.4384 84.1907 63.2569C84.2076 63.2569 84.2245 63.2417 84.2161 63.2266C84.1147 62.8408 83.1594 58.8322 84.9938 56.0488C85.0109 56.0261 84.9854 55.9958 84.96 56.0033C84.4866 56.1471 82.0605 57.4405 81.9592 61.1391ZM84.814 68.1066C85.3913 66.7354 87.6466 66.2245 89.8471 66.9662C92.0477 67.7081 93.3653 69.4236 92.788 70.7948C92.2104 72.166 89.9552 72.6769 87.7548 71.935C85.5543 71.1932 84.2365 69.4778 84.814 68.1066Z" fill="#32448C"/>
<path d="M19.0989 79.5036V73.2559H20.9841C21.6518 73.2559 22.269 73.3997 22.6071 73.6266C23.1735 74.0124 23.3257 74.678 23.3257 75.0636C23.3257 75.6461 23.1059 76.0015 22.8861 76.2587C22.7001 76.4704 22.2266 76.6671 21.9055 76.7806C22.3366 77.3403 23.6384 79.5867 23.6384 79.5867H22.0999C22.0999 79.5867 20.6543 76.9698 20.5107 76.9698H20.2824V79.5036H19.0989ZM20.8826 74.3451H20.2824V75.7746H20.8826C21.2631 75.7746 21.4743 75.7141 21.6856 75.5856C21.897 75.457 22.007 75.283 22.007 75.0636C22.007 74.8443 21.9055 74.6704 21.6941 74.5418C21.4827 74.4131 21.2715 74.3451 20.8826 74.3451ZM13.6465 79.5036V73.2559H15.5315C16.1994 73.2559 16.8165 73.3997 17.1547 73.6266C17.7211 74.0124 17.8731 74.678 17.8731 75.0636C17.8731 75.994 17.1969 76.6444 16.5544 76.7958C15.8444 76.9622 14.83 76.9698 14.83 76.9698V79.5036H13.6465ZM15.4386 74.3451H14.8385V75.7746H15.4386C15.8189 75.7746 16.0303 75.7141 16.2417 75.5856C16.453 75.457 16.5629 75.283 16.5629 75.0636C16.5629 74.8443 16.4615 74.6704 16.2501 74.5418C16.0388 74.4131 15.8274 74.3451 15.4386 74.3451ZM75.4156 79.5867V73.3392H77.3852C78.053 73.3392 78.6702 73.4828 79.0083 73.7097C79.5746 74.0955 79.7268 74.7611 79.7268 75.1469C79.7268 75.7292 79.507 76.0848 79.2872 76.3419C79.1013 76.5537 78.6279 76.7504 78.3066 76.8638C77.884 77.0076 76.7765 76.9773 76.7765 76.9773L76.7681 79.5943H75.4156V79.5867ZM77.2922 74.4284H76.7765V75.8579H77.2922C77.6726 75.8579 77.884 75.7973 78.0954 75.6688C78.3066 75.5401 78.4166 75.3663 78.4166 75.1469C78.4166 74.9276 78.315 74.7536 78.1038 74.6249C77.8925 74.4889 77.6811 74.4284 77.2922 74.4284ZM38.6601 74.1182L37.7388 74.9276C37.1809 74.4662 36.3101 74.0653 35.5746 74.0653C35.245 74.0653 34.9322 74.1182 34.6448 74.2242C34.3574 74.33 34.0954 74.4738 33.8756 74.6704C33.6557 74.8594 33.4866 75.1014 33.3599 75.3965C33.233 75.6915 33.1654 76.0166 33.1654 76.3646C33.1654 77.0605 33.3852 77.6201 33.8247 78.0437C34.2643 78.4748 34.8476 78.6866 35.5662 78.6866C36.1241 78.6866 36.6059 78.5277 37.0202 78.2252C37.2569 78.0513 37.5443 77.9001 37.671 77.4008L35.583 77.3932L35.5662 76.3193H39.1758C39.1758 77.484 38.939 78.0513 38.2713 78.732C37.6119 79.4127 36.7074 79.7531 35.5577 79.7531C35.0083 79.7531 34.501 79.6699 34.0276 79.496C33.5542 79.322 33.1485 79.0951 32.8104 78.7925C32.4682 78.4883 32.1979 78.1257 32.0157 77.7261C31.8214 77.3101 31.7283 76.8562 31.7283 76.3722C31.7283 75.7217 31.8974 75.1469 32.2271 74.6401C32.5653 74.1258 33.0217 73.7249 33.6051 73.445C34.1883 73.1652 34.8307 73.0215 35.5408 73.0215C36.1241 73.0215 36.6397 73.1047 37.0878 73.2635C37.5358 73.4224 38.3474 73.8837 38.6601 74.1182ZM47.2066 73.2559L48.2971 79.5036H46.9615L46.3274 75.5401L44.7804 79.5036H43.5546L41.9739 75.4872L41.3568 79.5036H40.0381L41.1454 73.2559H42.3712L44.1803 77.8925L45.9808 73.2559H47.2066ZM103.836 73.4904L104.166 75.3814H103.76L103.565 74.1787L103.101 75.3814H102.728L102.255 74.1636L102.069 75.3814H101.672L102.002 73.4904H102.374L102.915 74.8973L103.456 73.4904H103.836ZM52.1518 73.1803H53.3606L56.2686 79.5867H54.7555L54.1638 78.2857H51.3741L50.7823 79.5867H49.3284L52.1518 73.1803ZM53.7495 77.0907L53.2676 76.0697C53.1154 75.7217 52.938 75.2679 52.7435 74.7082H52.7097C52.4815 75.3814 52.3123 75.8352 52.2194 76.0697L51.746 77.0831H53.7495V77.0907ZM87.4532 73.1803H88.6706L91.5785 79.5867H90.0653L89.4736 78.2857H86.684L86.0923 79.5867H84.6382L87.4532 73.1803ZM89.0509 77.0907L88.569 76.0697C88.417 75.7217 88.2394 75.2679 88.0449 74.7082H88.0111C87.7829 75.3814 87.6139 75.8352 87.5208 76.0697L87.0474 77.0831H89.0509V77.0907ZM27.4001 73.1803H28.609L31.5169 79.5867H30.0039L29.4121 78.2857H26.6224L26.0307 79.5867H24.5768L27.4001 73.1803ZM28.9895 77.0907L28.5076 76.0697C28.3554 75.7217 28.178 75.2679 27.9835 74.7082H27.9497C27.7215 75.3814 27.5523 75.8352 27.4594 76.0697L26.986 77.0831H28.9895V77.0907ZM56.0995 74.398V73.1955H60.2755V74.398H58.8807V79.5716H57.4858V74.398H56.0995ZM100.286 73.8384V73.4753H101.545V73.8384H101.122V75.4041H100.7V73.8384H100.286ZM61.2307 79.6321V73.2635H62.617V79.6321H61.2307ZM80.513 79.6321V73.3392H81.9077V78.4673H83.8436V79.6321H80.513ZM92.6943 79.5791V76.826L90.5641 73.3014H91.849L93.3115 75.7595H93.3368L94.7993 73.3014H96.0842L93.9201 76.826V79.5791H92.6943ZM67.6215 78.7093C66.9114 78.732 66.3282 78.49 65.8886 78.0588C65.4405 77.6277 65.2208 77.068 65.2208 76.3797C65.2208 75.699 65.4405 75.1394 65.8886 74.7082C66.3366 74.2771 66.9114 74.0577 67.6215 74.0577C69.1939 74.0577 69.8278 74.988 69.8278 74.988L70.6901 74.3073C70.3943 73.9518 70.0223 73.6644 69.5828 73.4375C69.0078 73.1425 68.3486 72.9988 67.63 72.9988C66.9114 72.9988 66.2521 73.1425 65.6687 73.4375C65.0855 73.7324 64.629 74.1333 64.2993 74.6476C63.9697 75.162 63.8006 75.7444 63.8006 76.3797L63.7837 76.3873C63.7837 77.0227 63.9528 77.605 64.2824 78.127C64.6121 78.6413 65.0686 79.0497 65.6518 79.3447C66.2352 79.6396 66.8861 79.7834 67.6131 79.7834C68.3317 79.7834 68.9825 79.6321 69.5658 79.3371C70.0055 79.1157 70.3886 78.8142 70.6901 78.4522L69.8194 77.6807C69.8194 77.6807 68.9909 78.6715 67.6215 78.7093Z" fill="#32448C"/>
<path fill-rule="evenodd" clip-rule="evenodd" d="M207.421 74.6977C207.484 76.1653 207.094 77.5112 205.944 78.6139C205.028 79.4896 203.887 79.9679 202.536 80.0084C201.893 80.0246 201.222 80.057 200.597 79.9436C198.359 79.5624 196.809 78.0949 196.438 76.0437C196.229 74.9003 196.238 73.7572 196.619 72.6302C197.389 70.3356 199.7 69.0384 202.509 69.3059C205.427 69.5815 207.303 71.3897 207.43 74.0247C207.43 74.2517 207.421 74.4788 207.421 74.6977ZM198.631 74.5031C198.703 75.0788 198.721 75.4842 198.803 75.8733C199.084 77.2031 200.071 78.1031 201.367 78.2247C202.944 78.3788 204.149 77.8436 204.693 76.668C205.3 75.3625 205.291 74.0166 204.702 72.7032C204.213 71.6167 203.171 71.0815 201.793 71.114C200.461 71.1383 199.455 71.7302 199.038 72.8329C198.812 73.4166 198.739 74.049 198.631 74.5031Z" fill="#32448C"/>
<path fill-rule="evenodd" clip-rule="evenodd" d="M185.463 72.4929C184.792 72.4929 184.158 72.501 183.533 72.4848C183.424 72.4848 183.252 72.3713 183.234 72.282C183.025 71.4469 182.373 71.0739 181.512 71.0172C180.959 70.9848 180.379 71.0415 179.845 71.1632C179.337 71.2767 179.065 71.6577 179.038 72.1361C179.011 72.5902 179.301 72.882 179.727 73.0361C180.307 73.2469 180.923 73.4009 181.521 73.5632C182.282 73.7658 183.08 73.9117 183.823 74.155C186.133 74.9253 186.623 77.6091 184.801 79.1171C183.36 80.3171 179.219 80.3657 177.778 79.0684C177.026 78.3955 176.673 77.6091 176.609 76.628C177.316 76.628 177.996 76.6198 178.675 76.6361C178.766 76.6361 178.911 76.7496 178.938 76.8387C179.192 77.8036 179.962 78.2089 180.977 78.2577C181.53 78.2901 182.11 78.2415 182.654 78.1361C183.206 78.0306 183.533 77.6739 183.605 77.155C183.678 76.6604 183.351 76.3279 182.916 76.1658C182.038 75.8495 181.131 75.6063 180.234 75.3469C179.763 75.209 179.264 75.1198 178.793 74.982C177.588 74.6333 176.917 73.8793 176.809 72.7523C176.673 71.4875 177.035 70.3929 178.404 69.7929C178.947 69.5497 179.564 69.42 180.162 69.3307C181.177 69.1929 182.192 69.2334 183.17 69.5416C184.629 70.0038 185.517 71.1227 185.463 72.4929Z" fill="#32448C"/>
<path fill-rule="evenodd" clip-rule="evenodd" d="M187.049 69.5498C188.879 69.5498 190.682 69.501 192.486 69.566C194.38 69.6308 195.44 70.5308 195.648 72.2092C195.721 72.7929 195.676 73.4091 195.54 73.9848C195.204 75.3551 194.09 76.0848 192.35 76.1334C191.353 76.1578 190.356 76.1416 189.314 76.1416V79.701H187.049V69.5498ZM189.323 74.22C190.338 74.22 191.344 74.2848 192.323 74.1957C193.039 74.1308 193.347 73.6443 193.383 72.8821C193.419 72.1443 193.084 71.5119 192.431 71.4308C191.407 71.3011 190.365 71.3173 189.323 71.2768V74.22Z" fill="#32448C"/>
<path fill-rule="evenodd" clip-rule="evenodd" d="M216.581 71.3583H213.3V79.7176H210.953V71.3745H207.591V69.5745H216.581V71.3583Z" fill="#32448C"/>
<path fill-rule="evenodd" clip-rule="evenodd" d="M259.353 79.5467H258.402V69.7848C259.344 69.6063 259.444 69.6389 259.942 70.328C261.746 72.7847 263.549 75.2414 265.343 77.69C265.443 77.8278 265.552 77.9576 265.733 78.2008V69.7441H266.702V79.4819C265.887 79.709 265.633 79.636 265.207 79.0441C263.388 76.5645 261.566 74.0862 259.743 71.6091C259.643 71.4794 259.544 71.3495 259.344 71.2604C259.353 74.009 259.353 76.7577 259.353 79.5467Z" fill="#32448C"/>
<path fill-rule="evenodd" clip-rule="evenodd" d="M246.947 74.6166C247.065 73.9437 247.101 73.2464 247.31 72.5978C247.998 70.4491 249.847 69.3626 252.511 69.4519C254.668 69.5249 256.426 70.9032 256.933 72.9382C257.269 74.2842 257.242 75.6382 256.743 76.9517C256.063 78.7356 254.487 79.7733 252.394 79.8383C249.249 79.9354 247.147 78.168 247.047 75.3383C247.038 75.1031 247.047 74.8599 247.047 74.6247C247.011 74.6247 246.983 74.6247 246.947 74.6166ZM256.254 74.7059C256.208 74.6978 256.154 74.6816 256.109 74.6735C256.1 73.7815 255.982 72.9139 255.52 72.1113C254.804 70.8789 253.671 70.2383 252.103 70.2302C250.527 70.2221 249.349 70.8302 248.669 72.0788C247.763 73.7491 247.763 75.4923 248.606 77.1788C249.267 78.4842 250.49 79.1166 252.085 79.1085C253.68 79.1004 254.913 78.4598 255.538 77.1464C255.9 76.376 256.027 75.5248 256.254 74.7059Z" fill="#32448C"/>
<path fill-rule="evenodd" clip-rule="evenodd" d="M217.116 74.6251C217.27 73.8792 217.334 73.117 217.588 72.4035C218.249 70.5468 219.962 69.4603 222.1 69.4522C224.538 69.4441 226.214 70.4333 226.939 72.3711C227.537 73.9927 227.546 75.6468 226.812 77.2277C226.069 78.8413 224.71 79.7575 222.707 79.8386C219.409 79.9683 217.252 78.1116 217.234 75.1359V74.6413C217.198 74.6413 217.153 74.6332 217.116 74.6251ZM218.131 74.6008C218.267 75.2819 218.321 75.9224 218.521 76.5386C219.037 78.1521 220.424 79.0927 222.218 79.117C224.031 79.1332 225.462 78.2007 226.015 76.5953C226.459 75.3062 226.459 74.0008 225.997 72.7198C225.435 71.1468 224.094 70.255 222.327 70.2386C220.533 70.2224 219.182 71.0576 218.593 72.6305C218.358 73.271 218.276 73.9603 218.131 74.6008Z" fill="#32448C"/>
<path fill-rule="evenodd" clip-rule="evenodd" d="M229.568 75.3151V78.8826C229.568 79.6528 229.568 79.6528 228.662 79.5312V69.7611C228.77 69.7529 228.897 69.7286 229.024 69.7286C230.32 69.7286 231.625 69.6962 232.921 69.7448C233.473 69.7692 234.026 69.9313 234.561 70.0773C234.778 70.1341 234.978 70.2719 235.15 70.4016C236.754 71.6259 236.237 74.3988 234.244 74.9826C233.41 75.2258 232.477 75.242 231.589 75.3151C230.954 75.3556 230.302 75.3151 229.568 75.3151ZM229.613 74.4637C229.74 74.4799 229.803 74.488 229.867 74.488C230.7 74.488 231.534 74.5042 232.368 74.4799C232.794 74.4637 233.238 74.415 233.646 74.3097C234.67 74.0501 235.095 73.4177 235.041 72.3069C235.005 71.3989 234.497 70.7422 233.51 70.6368C232.232 70.499 230.936 70.5152 229.613 70.4664V74.4637Z" fill="#32448C"/>
<path fill-rule="evenodd" clip-rule="evenodd" d="M239.498 70.5066H236.082V69.7524H243.911V70.5066H240.522V79.5307H239.498V70.5066Z" fill="#32448C"/>
<path fill-rule="evenodd" clip-rule="evenodd" d="M187.302 65.3984C188.281 65.9822 189.35 66.2093 190.519 66.1768C191.317 66.1606 192.114 66.1849 192.912 66.2579C194.072 66.3633 195.023 66.866 195.812 67.62C195.938 67.7335 196.056 67.8552 196.292 68.0903C196.373 67.9606 196.41 67.839 196.5 67.7497C197.542 66.6632 198.884 66.193 200.469 66.1687C201.403 66.1525 202.336 66.1606 203.26 66.0632C203.777 66.0146 204.266 65.7876 204.792 65.6336C204.149 66.493 203.224 66.8579 202.11 66.8984C201.53 66.9146 200.941 66.8984 200.361 66.8984C198.412 66.8984 196.908 67.8957 196.346 69.5579C196.31 69.6552 196.283 69.7443 196.228 69.9308C196.147 69.6957 196.093 69.5498 196.038 69.3957C195.476 67.8795 193.972 66.9065 192.196 66.8903C191.335 66.8822 190.456 66.8984 189.604 66.793C188.589 66.6877 187.855 66.1444 187.302 65.3984Z" fill="#32448C"/>
<path fill-rule="evenodd" clip-rule="evenodd" d="M244.692 69.7361H245.607V79.5387H244.692V69.7361Z" fill="#32448C"/>
<path fill-rule="evenodd" clip-rule="evenodd" d="M227.828 83.82C228.417 83.4875 228.698 83.4956 229.25 83.893C229.386 83.8119 229.504 83.7145 229.658 83.6578C230.193 83.4389 230.709 83.6659 230.764 84.1848C230.818 84.6551 230.8 85.1335 230.791 85.6119C230.791 85.6929 230.664 85.7821 230.601 85.8632C230.537 85.774 230.419 85.6929 230.419 85.6038C230.392 85.1983 230.401 84.801 230.401 84.3957C230.401 84.1118 230.292 83.8768 229.921 83.8849C229.586 83.893 229.35 84.0551 229.323 84.3795C229.296 84.7686 229.314 85.1578 229.287 85.5388C229.278 85.6524 229.151 85.7578 229.078 85.8632C229.015 85.7578 228.906 85.6605 228.906 85.5469C228.879 85.174 228.897 84.801 228.897 84.4281C228.897 84.1524 228.843 83.893 228.462 83.8849C228.099 83.8768 227.855 84.0551 227.828 84.3876C227.791 84.7767 227.8 85.1578 227.764 85.5469C227.755 85.6524 227.655 85.7578 227.592 85.8632C227.52 85.7578 227.393 85.6443 227.393 85.5388C227.375 85.0038 227.375 84.4686 227.393 83.9335C227.393 83.8362 227.483 83.7388 227.529 83.6416C227.601 83.6902 227.701 83.7471 227.828 83.82ZM251.688 82.8146C252.367 82.8146 253.002 82.7822 253.618 82.8227C254.062 82.8551 254.334 83.2442 254.334 83.6659C254.334 84.1281 254.025 84.4767 253.527 84.5497C253.282 84.5821 253.029 84.5821 252.784 84.5821C252.123 84.5902 252.123 84.5821 252.123 85.1983C252.123 85.3443 252.15 85.4984 252.114 85.6443C252.095 85.7335 251.978 85.7983 251.896 85.8713C251.823 85.8064 251.697 85.7416 251.688 85.6767C251.678 84.7281 251.688 83.7876 251.688 82.8146ZM252.159 83.1226V84.2334C252.585 84.2334 252.974 84.2578 253.364 84.2253C253.736 84.1929 253.899 83.9578 253.881 83.6335C253.862 83.3173 253.663 83.139 253.319 83.1309C252.938 83.1145 252.558 83.1226 252.159 83.1226ZM202.989 83.7795C203.143 83.7226 203.261 83.674 203.379 83.6335C203.415 83.7226 203.487 83.8119 203.487 83.9011C203.487 84.574 203.524 85.247 203.46 85.9118C203.397 86.6739 202.427 87.0713 201.702 86.6496C201.539 86.5523 201.448 86.3659 201.331 86.2281C201.367 86.1874 201.394 86.1551 201.43 86.1146C201.548 86.1551 201.702 86.1713 201.766 86.2524C202.037 86.601 202.427 86.5929 202.735 86.4226C202.944 86.301 203.025 85.9929 203.107 85.7416C202.237 85.9686 201.811 85.8956 201.494 85.4577C201.177 85.0038 201.24 84.2172 201.621 83.8604C201.974 83.5281 202.464 83.5119 202.989 83.7795ZM201.693 84.7281C201.693 85.3524 202.128 85.7254 202.645 85.5388C203.025 85.401 203.225 84.8902 203.08 84.4119C202.971 84.0632 202.735 83.8281 202.3 83.8687C201.911 83.9173 201.693 84.2497 201.693 84.7281ZM177.38 84.5659C177.38 84.9957 177.389 85.3199 177.371 85.6443C177.371 85.7173 177.262 85.7902 177.208 85.8632C177.135 85.7902 176.991 85.7173 176.991 85.6443C176.972 84.7118 176.972 83.7795 176.972 82.8146C177.643 82.8146 178.277 82.7741 178.894 82.8308C179.356 82.8713 179.609 83.2523 179.582 83.7226C179.564 84.1929 179.256 84.5173 178.73 84.5578C178.313 84.5902 177.888 84.5659 177.38 84.5659ZM177.407 84.2334C177.851 84.2334 178.25 84.2578 178.64 84.2253C178.993 84.201 179.165 83.9659 179.156 83.6659C179.147 83.3659 178.984 83.1471 178.622 83.1309C178.232 83.1145 177.833 83.1309 177.407 83.1309V84.2334ZM207.312 82.7984C207.955 82.7984 208.499 82.7822 209.042 82.8065C209.586 82.8308 209.894 83.1309 209.921 83.601C209.949 84.1281 209.659 84.493 209.115 84.5578C208.789 84.5983 208.453 84.5983 208.118 84.5821C207.819 84.574 207.683 84.6632 207.71 84.9388C207.728 85.1578 207.728 85.3848 207.701 85.6038C207.692 85.6929 207.583 85.774 207.529 85.8632C207.457 85.7821 207.321 85.7092 207.321 85.6281C207.303 84.7037 207.312 83.7714 207.312 82.7984ZM207.737 84.2416C208.154 84.2416 208.535 84.2578 208.916 84.2334C209.287 84.2091 209.495 83.9984 209.486 83.674C209.477 83.3578 209.296 83.139 208.906 83.1309C208.526 83.1226 208.154 83.1309 207.737 83.1309V84.2416ZM193.973 83.7552C193.973 83.5038 193.954 83.2768 193.982 83.0578C193.991 82.9686 194.099 82.8794 194.154 82.7903C194.226 82.8713 194.353 82.9524 194.353 83.0335C194.371 83.9011 194.371 84.7605 194.353 85.6281C194.353 85.7092 194.253 85.7821 194.199 85.8632C193.873 85.5712 193.601 85.9523 193.293 85.9118C193.166 85.8956 193.021 85.8956 192.903 85.8551C192.269 85.6443 192.006 84.8498 192.305 84.1524C192.523 83.6497 193.247 83.3984 193.8 83.7388C193.818 83.7633 193.855 83.7552 193.973 83.7552ZM194.127 84.8498C194.009 84.3145 193.828 83.9497 193.474 83.9173C193.257 83.893 192.948 83.9903 192.785 84.1281C192.486 84.3876 192.495 85.1254 192.794 85.3767C192.967 85.5227 193.374 85.6524 193.51 85.5712C193.773 85.4172 193.927 85.1011 194.127 84.8498ZM215.313 85.8875C215.184 85.8339 215.054 85.7825 214.923 85.7335C214.552 85.7902 214.19 85.8875 213.827 85.9037C213.447 85.9118 213.147 85.6848 213.184 85.3605C213.211 85.1254 213.428 84.8415 213.655 84.7199C213.927 84.574 214.298 84.5983 214.615 84.5254C214.724 84.5011 214.914 84.4038 214.905 84.355C214.887 84.2253 214.824 84.0389 214.715 83.9821C214.371 83.8038 214.026 83.8119 213.718 84.0956C213.619 84.1848 213.492 84.2497 213.265 84.4038C213.419 83.7307 213.8 83.5524 214.588 83.6172C215.105 83.6578 215.304 83.8523 215.304 84.3469C215.322 84.8253 215.313 85.3118 215.313 85.8875ZM214.86 84.7686C214.525 84.8253 214.208 84.8578 213.918 84.955C213.782 85.0038 213.601 85.1983 213.619 85.2956C213.646 85.4334 213.818 85.6038 213.972 85.6443C214.452 85.7659 215.114 85.3443 214.86 84.7686ZM243.595 84.1686C243.876 83.6172 244.837 83.3659 245.362 83.7307C245.516 83.8362 245.616 84.0794 245.634 84.2659C245.671 84.7848 245.643 85.2956 245.643 85.8713C245.528 85.8274 245.413 85.7814 245.299 85.7335C244.873 85.7983 244.502 85.8875 244.139 85.8956C243.786 85.9037 243.55 85.6848 243.505 85.3686C243.459 85.0524 243.632 84.801 243.958 84.7037C244.266 84.6065 244.61 84.5902 244.927 84.5173C245.045 84.4849 245.254 84.3633 245.245 84.3226C245.199 84.1848 245.118 83.9984 244.982 83.9416C244.646 83.7876 244.311 83.8119 244.039 84.0956C243.949 84.1848 243.804 84.2334 243.686 84.2983C243.65 84.2659 243.623 84.2172 243.595 84.1686ZM245.199 84.7605C244.855 84.8253 244.538 84.8498 244.248 84.9469C244.112 84.9876 243.931 85.1902 243.949 85.2875C243.976 85.4253 244.148 85.5957 244.302 85.6362C244.855 85.7821 245.281 85.3767 245.199 84.7605ZM240.433 83.8362C240.614 83.7552 240.732 83.6902 240.85 83.6497C241.511 83.4308 242.028 83.7226 242.064 84.3469C242.091 84.7524 242.091 85.1497 242.073 85.555C242.064 85.6605 241.955 85.7578 241.892 85.8632C241.819 85.7497 241.701 85.6443 241.692 85.5307C241.665 85.174 241.683 84.8172 241.683 84.4605C241.683 84.1524 241.566 83.9173 241.194 83.893C240.786 83.8687 240.505 84.0632 240.46 84.4281C240.415 84.801 240.451 85.174 240.424 85.5469C240.415 85.6605 240.297 85.7659 240.224 85.8713C240.17 85.7659 240.061 85.6686 240.061 85.5631C240.043 84.7443 240.043 83.9254 240.061 83.0983C240.061 82.9929 240.17 82.8957 240.233 82.7984C240.297 82.8957 240.415 82.9848 240.424 83.0821C240.451 83.3092 240.433 83.5443 240.433 83.8362ZM221.14 84.7443C221.149 84.0146 221.593 83.5929 222.345 83.601C223.052 83.6091 223.496 84.047 223.496 84.7524C223.496 85.4903 223.052 85.9199 222.318 85.9199C221.584 85.9199 221.14 85.4741 221.14 84.7443ZM223.079 84.7443C223.079 84.2172 222.771 83.8687 222.318 83.8687C221.865 83.8687 221.557 84.2253 221.548 84.7524C221.548 85.2956 221.874 85.6686 222.345 85.6524C222.798 85.6281 223.088 85.2794 223.079 84.7443ZM260.432 84.7605C260.423 85.4903 259.979 85.9199 259.236 85.9118C258.511 85.9037 258.067 85.4496 258.076 84.7199C258.094 83.9984 258.547 83.5767 259.3 83.5929C260.006 83.6091 260.441 84.0632 260.432 84.7605ZM258.484 84.7443C258.475 85.2632 258.774 85.6281 259.227 85.6524C259.698 85.6686 260.024 85.2956 260.024 84.7524C260.024 84.2334 259.707 83.8768 259.263 83.8687C258.81 83.8604 258.493 84.2172 258.484 84.7443ZM198.268 83.7876C198.549 83.7226 198.812 83.6172 199.074 83.601C199.573 83.5767 199.854 83.82 199.881 84.2659C199.908 84.7118 199.899 85.1578 199.881 85.6038C199.881 85.6929 199.763 85.774 199.7 85.8551C199.636 85.774 199.518 85.6929 199.509 85.6038C199.491 85.2145 199.5 84.8253 199.491 84.4443C199.482 84.12 199.337 83.8768 198.947 83.8768C198.576 83.8768 198.304 84.047 198.277 84.4119C198.25 84.7848 198.277 85.1578 198.241 85.5307C198.232 85.6443 198.105 85.7497 198.032 85.8632C197.969 85.7578 197.851 85.6605 197.851 85.555C197.833 85.02 197.833 84.4849 197.851 83.9497C197.851 83.8443 197.932 83.7388 197.969 83.6335C198.087 83.6983 198.195 83.7552 198.268 83.7876ZM185.69 84.7929C185.681 85.5307 185.237 85.9361 184.476 85.9199C183.769 85.9037 183.361 85.466 183.37 84.7443C183.379 84.0065 183.805 83.5929 184.566 83.601C185.291 83.601 185.699 84.0389 185.69 84.7929ZM183.769 84.7605C183.769 85.4091 184.213 85.7821 184.756 85.6038C185.173 85.466 185.4 84.9712 185.264 84.4686C185.164 84.0956 184.911 83.8524 184.457 83.8768C184.022 83.893 183.769 84.2334 183.769 84.7605ZM232.159 85.1254C232.377 85.247 232.494 85.328 232.63 85.3929C232.83 85.4903 233.038 85.6443 233.229 85.6281C233.428 85.6119 233.609 85.4172 233.799 85.3037C233.654 85.1821 233.537 85.0281 233.364 84.955C233.129 84.8498 232.848 84.8334 232.612 84.7362C232.204 84.574 232.105 84.1362 232.386 83.8442C232.821 83.3903 233.854 83.5767 234.144 84.2821C233.908 84.1767 233.781 84.1118 233.645 84.0632C233.455 83.9903 233.256 83.8768 233.065 83.8849C232.911 83.893 232.766 84.0632 232.621 84.1605C232.739 84.2659 232.839 84.4119 232.984 84.4686C233.238 84.574 233.528 84.6065 233.79 84.6956C234.262 84.8659 234.37 85.3037 234.044 85.6362C233.718 85.9686 233.274 85.9605 232.839 85.8875C232.458 85.8308 232.223 85.6119 232.159 85.1254ZM186.841 83.6254C187.502 83.6497 187.385 84.1118 187.539 84.3633C187.711 84.6632 187.801 84.9957 187.974 85.4334C188.146 85.0119 188.254 84.6713 188.427 84.355C188.572 84.0956 188.49 83.6578 189.124 83.601C188.798 84.3633 188.526 85.0605 188.209 85.7335C188.091 85.9767 187.838 85.9361 187.729 85.701C187.43 85.0524 187.167 84.3795 186.841 83.6254ZM262.353 83.5686C262.526 83.6172 262.671 83.6578 262.961 83.7388C262.671 83.8523 262.516 83.9092 262.335 83.9821C262.335 84.493 262.344 85.0119 262.326 85.5388C262.317 85.6524 262.199 85.7578 262.127 85.8713C262.063 85.7659 261.964 85.6686 261.955 85.5631C261.928 85.2227 261.946 84.874 261.946 84.5335C261.946 84.2334 262.072 83.8849 261.656 83.8362C261.773 83.5767 261.9 83.3659 261.973 83.1471C262.072 82.8308 262.498 82.6037 262.834 82.7335C262.888 82.7578 262.97 82.8551 262.961 82.8876C262.933 82.9524 262.852 83.0173 262.779 83.0416C262.353 83.1552 262.353 83.1471 262.353 83.5686ZM219.618 83.5686C219.79 83.6172 219.935 83.6578 220.08 83.6983C220.089 83.7307 220.089 83.7714 220.098 83.8038C219.944 83.8524 219.799 83.9092 219.599 83.974C219.599 84.493 219.609 85.02 219.59 85.555C219.59 85.6605 219.482 85.7659 219.427 85.8632C219.355 85.7578 219.237 85.6524 219.228 85.5388C219.201 85.2145 219.21 84.8821 219.219 84.5578C219.237 84.2334 219.273 83.9173 218.92 83.82C219.038 83.5767 219.155 83.3659 219.228 83.1471C219.328 82.8308 219.745 82.6037 220.08 82.7335C220.143 82.7578 220.225 82.847 220.207 82.8794C220.179 82.9443 220.098 83.0335 220.034 83.0335C219.618 83.0335 219.572 83.2523 219.618 83.5686ZM217.361 83.5524C217.515 83.6091 217.66 83.6578 217.842 83.7226C217.642 83.8687 217.379 83.9659 217.37 84.0875C217.325 84.5173 217.361 84.9469 217.379 85.3767C217.379 85.4415 217.497 85.4984 217.561 85.5631C217.642 85.6443 217.715 85.7254 217.796 85.8064C217.678 85.8389 217.561 85.8956 217.443 85.8956C217.116 85.8794 216.981 85.6848 216.971 85.4172C216.962 85.0767 216.99 84.7281 216.953 84.3876C216.935 84.1686 216.826 83.9578 216.745 83.6902L217.189 82.8957C217.234 82.9119 217.27 82.9281 217.316 82.9443C217.325 83.1471 217.343 83.3497 217.361 83.5524ZM247.066 83.7064C247.202 83.4632 247.356 83.1795 247.51 82.9038C247.555 82.92 247.592 82.9362 247.637 82.9524L247.691 83.5605C247.845 83.6172 247.99 83.6659 248.163 83.7307C247.963 83.8768 247.7 83.9821 247.691 84.0956C247.655 84.5416 247.691 84.9876 247.718 85.4334C247.718 85.4822 247.827 85.5307 247.891 85.5793C247.972 85.6443 248.054 85.7173 248.135 85.7821C248.009 85.8226 247.882 85.9037 247.764 85.9037C247.438 85.8956 247.302 85.6929 247.293 85.4253C247.283 85.0848 247.311 84.7362 247.274 84.3957C247.247 84.1767 247.148 83.9659 247.066 83.7064ZM237.714 83.6902C237.841 83.4632 237.995 83.1714 238.203 82.7822C238.403 83.2037 238.086 83.6902 238.738 83.7876C238.602 83.8523 238.475 83.9092 238.312 83.9903C238.312 84.3957 238.294 84.8091 238.321 85.2227C238.33 85.3443 238.484 85.466 238.575 85.5793C238.629 85.6524 238.684 85.7254 238.729 85.8064C238.647 85.8389 238.566 85.9037 238.484 85.9037C238.158 85.9118 237.941 85.7983 237.932 85.466C237.932 85.1254 237.941 84.7767 237.914 84.4362C237.895 84.2091 237.796 83.9821 237.714 83.6902ZM265.869 83.6902C265.987 83.4713 266.132 83.1795 266.286 82.8876C266.332 82.9038 266.377 82.9119 266.422 82.9281C266.431 83.1309 266.449 83.3254 266.458 83.5524C266.585 83.601 266.721 83.6578 266.948 83.7471C266.232 83.9578 266.486 84.4281 266.44 84.8091C266.395 85.2227 266.395 85.6119 267.129 85.7416C266.332 86.001 266.078 85.8632 266.06 85.3443C266.051 85.0767 266.078 84.8091 266.051 84.5416C266.033 84.274 265.942 83.9984 265.869 83.6902ZM226.233 83.7795C226.124 83.8362 226.015 83.9497 225.906 83.9497C225.49 83.9335 225.336 84.1443 225.308 84.4686C225.281 84.8415 225.299 85.2145 225.272 85.5793C225.263 85.6848 225.145 85.774 225.073 85.8713C225.009 85.774 224.883 85.6686 224.883 85.5712C224.864 85.02 224.864 84.4686 224.883 83.9254C224.883 83.8281 224.982 83.7307 225.037 83.6416C225.127 83.7064 225.218 83.7633 225.227 83.7714C225.532 83.7139 225.838 83.6544 226.142 83.5929C226.178 83.6497 226.206 83.7145 226.233 83.7795ZM181.404 83.7633C181.657 83.7064 181.884 83.6416 182.11 83.6172C182.165 83.6091 182.237 83.7388 182.301 83.8038C182.219 83.8524 182.138 83.9578 182.065 83.9497C181.612 83.9092 181.467 84.1524 181.431 84.4767C181.395 84.8498 181.413 85.2227 181.386 85.5876C181.376 85.6848 181.277 85.7659 181.222 85.8551C181.15 85.7659 181.023 85.6686 181.014 85.5793C180.996 85.0281 180.996 84.4767 181.014 83.9254C181.014 83.82 181.096 83.7226 181.141 83.6254C181.259 83.6902 181.367 83.7471 181.404 83.7633ZM255.765 83.5119C255.89 83.5972 256.014 83.6837 256.137 83.7714C256.391 83.7145 256.608 83.6497 256.835 83.6254C256.889 83.6172 256.971 83.7471 257.034 83.82C256.971 83.8687 256.898 83.974 256.844 83.9659C256.218 83.9011 256.173 84.2902 256.146 84.6713C256.128 84.9957 256.146 85.328 256.128 85.6524C256.128 85.7254 256.019 85.7983 255.965 85.8794C255.892 85.8145 255.765 85.7578 255.765 85.6929C255.756 85.0038 255.765 84.3307 255.765 83.5119ZM211.734 84.355C211.734 84.7686 211.743 85.1902 211.725 85.6038C211.725 85.6929 211.607 85.774 211.543 85.8632C211.48 85.7821 211.353 85.701 211.353 85.62C211.335 84.7686 211.335 83.9173 211.353 83.074C211.353 82.9767 211.489 82.8876 211.553 82.7984C211.607 82.8876 211.716 82.9767 211.716 83.0659C211.743 83.4956 211.734 83.9254 211.734 84.355ZM196.301 84.7443C196.301 85.0443 196.32 85.3361 196.292 85.6362C196.283 85.7173 196.156 85.7902 196.084 85.8632C196.03 85.7902 195.93 85.7173 195.921 85.6362C195.912 85.0443 195.903 84.4524 195.921 83.8524C195.921 83.7714 196.048 83.6983 196.12 83.6254C196.175 83.6983 196.274 83.7714 196.283 83.8524C196.31 84.1524 196.301 84.4524 196.301 84.7443ZM190.792 84.7281C190.792 85.0362 190.801 85.3524 190.783 85.6605C190.774 85.7335 190.665 85.7983 190.601 85.8632C190.538 85.7983 190.42 85.7254 190.42 85.6605C190.402 85.0524 190.402 84.4443 190.42 83.8362C190.42 83.7633 190.538 83.6983 190.601 83.6335C190.665 83.6983 190.774 83.7633 190.783 83.8362C190.801 84.1362 190.792 84.4281 190.792 84.7281ZM264.438 84.801C264.438 85.0686 264.456 85.3361 264.429 85.6038C264.419 85.6929 264.32 85.7821 264.265 85.8632C264.193 85.7821 264.066 85.7092 264.066 85.6281C264.048 85.0362 264.048 84.4443 264.066 83.8524C264.066 83.7795 264.175 83.7064 264.238 83.6335C264.311 83.7145 264.429 83.7876 264.438 83.8687C264.456 84.1767 264.438 84.493 264.438 84.801Z" fill="#32448C"/>
<path fill-rule="evenodd" clip-rule="evenodd" d="M419.638 68.6112C419.61 76.0611 413.005 81.9546 404.869 82.0193C396.561 82.0843 389.875 76.1422 389.721 68.9598C389.567 61.6396 396.063 55.3408 404.453 55.2761C412.897 55.203 419.638 61.1776 419.638 68.6112ZM405.141 73.0942C405.141 74.7884 405.132 76.4827 405.15 78.1769C405.159 78.9795 405.685 79.2794 406.437 78.8903C409.188 77.4894 411.933 76.0788 414.672 74.6586C415.443 74.2615 415.832 73.6616 415.832 72.8266C415.814 69.9083 415.823 66.9818 415.823 64.0636C415.823 62.9205 415.343 62.6449 414.201 63.1474C411.574 64.3067 408.956 65.474 406.328 66.6252C405.513 66.9818 405.132 67.5169 405.141 68.3276C405.159 69.9164 405.141 71.5053 405.141 73.0942ZM404.19 73.1671C404.19 71.5377 404.163 69.9083 404.199 68.2789C404.217 67.4683 403.827 66.9737 403.048 66.6333C400.348 65.4578 397.666 64.2662 394.976 63.0826C393.943 62.6287 393.508 62.8637 393.508 63.8851C393.499 66.6818 393.526 69.4705 393.49 72.2672C393.472 73.5157 394.042 74.3831 395.275 74.9911C397.793 76.2394 400.276 77.5527 402.776 78.8336C403.664 79.2875 404.181 79.0362 404.19 78.1283C404.199 76.4746 404.19 74.8209 404.19 73.1671ZM404.743 66.1469C405.069 66.0415 405.413 65.9604 405.73 65.8225C408.521 64.6234 411.305 63.4129 414.084 62.1909C414.31 62.0936 414.473 61.8667 414.663 61.7046C414.464 61.5748 414.283 61.3964 414.066 61.3073C411.529 60.3832 408.983 59.4833 406.446 58.543C405.286 58.1133 404.163 58.1052 403.012 58.5349C400.52 59.4428 398.02 60.3345 395.528 61.2587C395.284 61.3478 395.121 61.5991 394.912 61.7775C395.103 61.9396 395.265 62.1504 395.501 62.2557C398.255 63.4718 401.019 64.6715 403.782 65.8632C404.081 65.9848 404.407 66.0496 404.743 66.1469Z" fill="#32448C"/>
<path fill-rule="evenodd" clip-rule="evenodd" d="M370.494 73.6539C371.5 72.8027 372.415 72.0164 373.33 71.2381C378.63 66.731 383.922 62.2156 389.231 57.7247C389.702 57.3274 390.218 56.9058 390.807 56.6951C391.623 56.3951 392.583 56.8085 393 57.4733C393.435 58.1542 393.29 59.0297 392.61 59.6215C390.998 61.0158 389.367 62.4101 387.745 63.7964L377.906 72.2352C375.378 74.3997 372.859 76.5804 370.304 78.7204C369.905 79.0528 369.398 79.4014 368.891 79.4905C367.504 79.7338 366.571 79.0204 366.58 77.7476C366.607 72.3892 366.662 67.0309 366.707 61.6724C366.716 60.4484 366.734 59.2162 366.771 57.9921C366.798 57.3112 367.224 56.8328 367.921 56.6059C368.601 56.387 369.28 56.4357 369.86 56.8572C370.422 57.2625 370.558 57.8218 370.558 58.446C370.512 63.3586 370.485 68.2792 370.449 73.1919C370.449 73.3053 370.476 73.4188 370.494 73.6539ZM336.047 73.6782C338.838 71.2949 341.538 68.9926 344.238 66.6822C347.871 63.5855 351.504 60.497 355.128 57.3922C355.735 56.8734 356.397 56.4843 357.275 56.6464C357.991 56.7761 358.526 57.141 358.743 57.7975C358.97 58.5109 358.77 59.1351 358.172 59.6459C356.841 60.7888 355.509 61.9238 354.168 63.0668C351.078 65.7176 347.98 68.3685 344.89 71.0193C341.819 73.6539 338.738 76.2803 335.667 78.923C334.96 79.5311 334.154 79.7095 333.257 79.3933C332.342 79.069 332.097 78.3557 332.106 77.5288C332.161 71.4489 332.206 65.3771 332.26 59.2972C332.26 58.8514 332.287 58.4055 332.333 57.9678C332.441 57.068 333.13 56.5167 334.127 56.5005C335.205 56.4762 335.948 56.9706 336.056 57.8868C336.138 58.5514 336.066 59.2324 336.066 59.9133C336.056 63.6181 336.047 67.3308 336.047 71.0355V73.6782Z" fill="#32448C"/>
<path fill-rule="evenodd" clip-rule="evenodd" d="M401.173 94.2446V87.0136C401.173 86.1057 401.173 85.1897 401.182 84.2818C401.191 83.4629 401.68 82.9766 402.477 82.9847C403.256 82.9928 403.737 83.4953 403.737 84.306C403.709 88.5458 403.664 92.7773 403.637 97.017C403.637 97.6169 403.492 98.1115 402.794 98.3384C402.115 98.5573 401.607 98.3141 401.145 97.8925C397.295 94.3662 393.444 90.8317 389.594 87.3054C389.476 87.2001 389.358 87.1028 389.113 86.9083C389.086 87.2325 389.059 87.4432 389.059 87.6541L388.95 96.9927C388.941 97.8277 388.488 98.306 387.718 98.3141C386.885 98.3222 386.404 97.8439 386.414 96.9684C386.45 92.672 386.486 88.3675 386.568 84.0709C386.577 83.7224 386.885 83.2765 387.202 83.0495C387.664 82.7252 388.253 82.8388 388.706 83.1711C389.068 83.4386 389.385 83.7548 389.711 84.0628L400.566 94.0176C400.674 94.1231 400.801 94.2041 400.919 94.3014C401.009 94.2771 401.091 94.2609 401.173 94.2446ZM372.017 88.8457C374.019 87.0542 375.94 85.3275 377.87 83.6008C378.033 83.4548 378.205 83.3008 378.386 83.163C378.866 82.7983 379.392 82.7171 379.972 82.9442C380.533 83.163 380.678 83.6008 380.678 84.0953C380.687 84.9464 380.687 85.7895 380.678 86.6407C380.642 90.0698 380.597 93.5069 380.552 96.936C380.542 97.8358 380.035 98.2817 379.138 98.2168C378.386 98.1601 378.006 97.7304 378.006 96.9441C378.015 93.8312 378.033 90.7101 378.042 87.5972V86.811C377.707 87.0947 377.498 87.273 377.29 87.4513C375.904 88.6917 374.536 89.9562 373.131 91.1804C372.406 91.8127 371.609 91.7803 370.893 91.1317C369.508 89.8845 368.137 88.6252 366.78 87.3541C366.572 87.1595 366.445 86.9002 366.282 86.665L365.928 86.8353V88.643L365.901 96.7171C365.901 97.2764 365.765 97.7871 365.122 98.0303C364.207 98.3708 363.337 97.8439 363.328 96.9117C363.319 95.4687 363.355 94.0338 363.364 92.5909C363.382 89.8347 363.382 87.0785 363.391 84.3222C363.391 84.1925 363.391 84.0709 363.401 83.9412C363.446 83.39 363.681 82.9604 364.297 82.7576C364.886 82.5712 365.376 82.7333 365.783 83.1144C367.26 84.4601 368.719 85.8138 370.187 87.1676C370.776 87.727 371.373 88.262 372.017 88.8457ZM359.042 93.4259C356.805 93.4259 354.63 93.4745 352.456 93.4016C351.495 93.3692 350.825 93.6123 350.173 94.2284C348.959 95.3552 347.663 96.4171 346.386 97.4872C346.15 97.6818 345.86 97.8682 345.552 97.9412C344.936 98.0872 344.356 97.9817 344.021 97.4224C343.704 96.8873 343.84 96.3928 344.311 95.9794C345.307 95.112 346.322 94.2446 347.328 93.3854C351.224 90.0455 355.12 86.7136 359.015 83.3738C359.188 83.2274 359.37 83.0894 359.559 82.9604C360.012 82.6443 360.501 82.6117 361.027 82.8226C361.552 83.0333 361.724 83.4467 361.724 83.9088C361.688 88.2052 361.652 92.5099 361.598 96.8063C361.588 97.6656 361.145 98.0872 360.311 98.0789C359.468 98.0789 359.033 97.6494 359.024 96.7982C359.042 95.7282 359.042 94.6499 359.042 93.4259ZM359.052 91.2128V86.665C357.258 88.2052 355.581 89.6563 353.779 91.2128H359.052ZM419.547 93.2395C419.547 93.9772 419.61 94.7229 419.52 95.4606C419.474 95.8497 419.257 96.3036 418.94 96.555C416.249 98.687 413.141 99.1977 409.825 98.0789C406.536 96.9684 404.688 94.7229 404.289 91.5856C403.755 87.3703 407.053 83.5522 411.845 83.0009C414.536 82.6928 416.955 83.3413 418.985 85.0113C419.755 85.6436 419.864 86.3003 419.293 86.8272C418.677 87.4027 417.952 87.3703 417.173 86.7379C415.415 85.3113 413.377 84.8492 411.13 85.4977C408.865 86.1544 407.433 87.5729 406.926 89.6725C406.391 91.8775 407.442 94.0581 409.626 95.4038C411.565 96.5955 414.301 96.6118 416.33 95.4606C416.792 95.2012 417.028 94.9175 417.01 94.3986C416.974 93.5718 417.028 92.7449 417.064 91.9262C417.091 91.1723 417.535 90.7912 418.351 90.7912C419.085 90.7912 419.583 91.2128 419.619 91.9019C419.646 92.3478 419.628 92.7936 419.628 93.2395H419.547ZM344.456 93.1907C344.456 93.5313 344.41 93.8717 344.465 94.2041C344.646 95.266 344.066 95.9389 343.169 96.5469C337.959 100.097 330.159 97.2603 329.234 91.4641C328.537 87.0947 331.563 83.2684 336.428 82.5226C339.264 82.0849 341.828 82.7659 343.966 84.5493C344.592 85.068 344.682 85.8219 344.202 86.3084C343.685 86.8272 342.78 86.811 342.118 86.2678C340.243 84.7114 338.068 84.2818 335.685 85.1004C333.23 85.9435 331.826 87.646 331.69 89.9805C331.481 93.7015 335.205 96.2793 338.811 95.7363C339.11 95.6875 339.418 95.647 339.708 95.5578C341.728 94.9661 341.892 94.7553 341.901 92.8989C341.901 92.3883 341.892 91.8775 341.919 91.3749C341.964 90.6858 342.462 90.2481 343.178 90.2481C343.903 90.24 344.447 90.7184 344.483 91.4154C344.501 91.7073 344.456 92.0072 344.456 92.3071C344.456 92.5909 344.465 92.8908 344.456 93.1907C344.456 93.1907 344.465 93.1907 344.456 93.1907Z" fill="#32448C"/>
<path fill-rule="evenodd" clip-rule="evenodd" d="M364.425 67.6869C364.425 70.1432 364.434 72.5996 364.425 75.0557C364.425 76.0529 364.38 77.0419 364.362 78.0389C364.344 78.9955 363.61 79.6927 362.568 79.7413C361.553 79.7899 360.575 79.0684 360.566 78.1362C360.538 75.8665 360.593 73.6047 360.611 71.3349C360.629 69.7865 360.656 68.2463 360.665 66.6979C360.692 63.9904 360.756 61.2748 360.729 58.5671C360.711 57.2295 361.707 56.654 362.658 56.6378C363.8 56.6135 364.561 57.3916 364.561 58.5914C364.552 61.1774 364.516 63.7635 364.498 66.3413V67.6788C364.47 67.6869 364.452 67.6869 364.425 67.6869Z" fill="#32448C"/>
<path fill-rule="evenodd" clip-rule="evenodd" d="M384.964 90.6211C384.964 92.7611 384.973 94.8932 384.964 97.0332C384.964 97.8277 384.484 98.2898 383.713 98.2979C382.925 98.306 382.409 97.8116 382.418 97.0008C382.454 92.6801 382.499 88.3675 382.545 84.0466C382.554 83.3251 383.052 82.8631 383.795 82.8631C384.592 82.8631 385.082 83.3089 385.091 84.0871C385.1 86.2678 385.091 88.4485 385.091 90.6292C385.054 90.6211 385.009 90.6211 384.964 90.6211ZM414.564 66.561C414.401 66.9986 414.265 67.5418 413.984 68.0119C413.848 68.239 413.422 68.4659 413.141 68.4416C412.878 68.4254 412.534 68.1255 412.425 67.8741C412.063 67.0392 412.181 66.1961 412.706 65.4503C412.878 65.199 413.295 64.9234 413.576 64.9478C413.848 64.9721 414.147 65.3206 414.319 65.5882C414.482 65.8395 414.473 66.1637 414.564 66.561ZM409.354 74.5133C409.191 74.9187 409.055 75.4862 408.747 75.9644C408.339 76.5968 407.533 76.4914 407.234 75.8104C406.853 74.9268 407.007 74.0513 407.56 73.2731C407.723 73.0462 408.14 72.8111 408.403 72.8354C408.665 72.8596 408.964 73.1758 409.109 73.4352C409.263 73.6947 409.263 74.0351 409.354 74.5133ZM412.28 70.5088C412.081 71.0438 411.945 71.6032 411.664 72.0977C411.537 72.3247 411.103 72.5597 410.831 72.5435C410.577 72.5273 410.242 72.2112 410.124 71.9679C409.78 71.206 409.861 70.4116 410.305 69.7144C410.496 69.4063 410.958 69.0253 411.266 69.0496C411.565 69.074 411.855 69.5442 412.072 69.8603C412.19 70.0224 412.144 70.2737 412.172 70.4764C412.208 70.4845 412.244 70.5007 412.28 70.5088ZM402.477 75.1295C402.414 75.397 402.414 75.697 402.278 75.9239C402.124 76.1753 401.852 76.5319 401.607 76.5481C401.308 76.5643 400.855 76.3536 400.692 76.1103C400.149 75.3241 400.013 74.4486 400.384 73.5568C400.665 72.892 401.453 72.7787 401.861 73.3947C402.196 73.9054 402.35 74.5133 402.577 75.0727C402.55 75.097 402.514 75.1134 402.477 75.1295ZM400.013 69.0577C400.176 68.1012 400.493 67.5661 401.037 67.5418C401.553 67.5094 402.142 68.0364 402.26 68.8389C402.341 69.4063 402.323 70.0305 402.151 70.5737C401.925 71.279 401.136 71.36 400.72 70.7358C400.384 70.225 400.239 69.617 400.013 69.0577ZM397.449 67.404C397.331 68.239 397.005 68.7903 396.525 68.8389C395.981 68.8956 395.492 68.4659 395.347 67.631C395.256 67.1121 395.274 66.5366 395.419 66.0259C395.601 65.3937 396.371 65.2882 396.751 65.8476C397.086 66.3178 397.231 66.8852 397.449 67.404ZM397.449 72.8111C397.331 73.2488 397.295 73.6135 397.132 73.9298C396.878 74.4243 396.28 74.4567 395.872 74.0432C395.311 73.484 395.12 72.0734 395.51 71.4086C395.836 70.8493 396.534 70.8168 396.896 71.4005C397.177 71.8382 397.286 72.3652 397.449 72.8111ZM404.86 63.1156C404.181 62.913 403.537 62.8157 402.994 62.5563C402.16 62.143 402.142 61.316 402.885 60.7729C403.818 60.0839 405.893 60.1001 406.817 60.7972C407.488 61.2998 407.497 62.1104 406.745 62.4996C406.183 62.7995 405.503 62.9211 404.86 63.1156Z" fill="#32448C"/>
<defs>
<clipPath id="clip0">
<rect x="137.273" y="4.03418" width="128.675" height="13.8883" fill="white"/>
</clipPath>
<clipPath id="clip1">
<rect y="3.04492" width="76.3655" height="16.9238" fill="white"/>
</clipPath>
<clipPath id="clip2">
<rect x="313.08" y="0.65918" width="81.0857" height="16.9604" fill="white"/>
</clipPath>
</defs>
</svg>
