<svg width="1046" height="42" viewBox="0 0 1046 42" fill="none" xmlns="http://www.w3.org/2000/svg">
<path d="M531.808 41.0768V38.3836C531.93 37.5267 531.201 36.7922 530.351 36.6698C530.23 36.6698 530.23 36.6698 530.108 36.6698C529.501 36.6698 528.894 36.9146 528.651 37.4043C528.408 36.9146 527.801 36.6698 527.194 36.6698C526.708 36.6698 526.222 36.9146 525.979 37.2819V36.7922H525.008V41.0768H525.979V38.6285C525.858 38.0164 526.343 37.5267 526.829 37.5267H526.951C527.558 37.5267 527.922 37.894 527.922 38.6285V41.0768H528.894V38.6285C528.772 38.0164 529.258 37.5267 529.744 37.5267H529.865C530.472 37.5267 530.837 37.894 530.837 38.6285V41.0768H531.808ZM545.774 36.7922H544.195V35.4456H543.224V36.7922H542.374V37.6491H543.224V39.6078C543.224 40.5871 543.588 41.1992 544.681 41.1992C545.167 41.1992 545.531 41.0768 545.896 40.832L545.653 39.975C545.41 40.0974 545.167 40.2199 544.803 40.2199C544.317 40.2199 544.195 39.975 544.195 39.4854V37.5267H545.774V36.7922ZM553.668 36.6698C553.182 36.6698 552.818 36.9146 552.575 37.2819V36.7922H551.603V41.0768H552.575V38.6285C552.575 37.894 552.818 37.5267 553.546 37.5267C553.789 37.5267 553.911 37.5267 554.154 37.6491L554.396 36.7922C554.154 36.6698 553.911 36.6698 553.668 36.6698ZM541.645 37.1595C541.159 36.7922 540.552 36.6698 539.945 36.6698C538.852 36.6698 538.123 37.1595 538.123 38.0164C538.123 38.8733 538.609 39.1181 539.581 39.2406H540.066C540.552 39.363 540.795 39.4854 540.795 39.7302C540.795 39.975 540.431 40.2199 539.823 40.2199C539.338 40.2199 538.852 40.0975 538.366 39.7302L537.88 40.4647C538.366 40.832 539.095 41.0768 539.702 41.0768C540.916 41.0768 541.645 40.4647 541.645 39.7302C541.645 38.9957 541.038 38.6285 540.188 38.5061H539.702C539.338 38.5061 538.973 38.3836 538.973 38.0164C538.973 37.6491 539.216 37.5267 539.823 37.5267C540.309 37.5267 540.795 37.6491 541.159 37.894L541.645 37.1595ZM566.662 36.6698C566.176 36.6698 565.812 36.9146 565.569 37.2819V36.7922H564.598V41.0768H565.569V38.6285C565.569 37.894 565.812 37.5267 566.541 37.5267C566.784 37.5267 566.905 37.5267 567.148 37.6491L567.391 36.7922C567.148 36.6698 566.905 36.6698 566.662 36.6698ZM554.639 38.9957C554.639 40.2199 555.489 41.1992 556.704 41.3216C556.825 41.3216 556.825 41.3216 556.947 41.3216C557.554 41.3216 558.04 41.1992 558.526 40.832L558.04 40.0975C557.675 40.3423 557.311 40.4647 556.947 40.4647C556.218 40.4647 555.611 39.8526 555.611 39.1181C555.611 38.3836 556.218 37.7715 556.947 37.7715C557.311 37.7715 557.797 37.8939 558.04 38.1388L558.526 37.4043C558.04 37.0371 557.554 36.9146 556.947 36.9146C555.732 36.7922 554.761 37.7715 554.639 38.9957C554.639 38.8733 554.639 38.8733 554.639 38.9957ZM563.383 38.9957V36.7922H562.412V37.2819C562.047 36.9146 561.562 36.6698 561.076 36.6698C559.861 36.6698 558.768 37.6491 558.768 38.9957C558.768 40.3423 559.74 41.3216 561.076 41.3216C561.562 41.3216 562.047 41.0768 562.412 40.7095V41.1992H563.383V38.9957ZM559.861 38.9957C559.861 38.2612 560.469 37.7715 561.197 37.7715C561.926 37.7715 562.412 38.3836 562.412 39.1181C562.412 39.8526 561.804 40.3423 561.076 40.3423C560.469 40.3423 559.861 39.8526 559.861 38.9957ZM548.689 36.6698C547.474 36.6698 546.503 37.7715 546.503 38.9957C546.503 40.2199 547.596 41.1992 548.81 41.1992C549.417 41.1992 550.025 40.9544 550.51 40.5871L550.025 39.8526C549.66 40.0975 549.296 40.3423 548.81 40.3423C548.203 40.3423 547.717 39.8526 547.596 39.2406H550.753C550.753 39.1181 550.753 38.9957 550.753 38.8733C550.875 37.7715 550.025 36.7922 548.932 36.6698C548.932 36.7922 548.81 36.7922 548.689 36.6698ZM548.689 37.5267C549.296 37.5267 549.782 38.0164 549.782 38.6285H547.596C547.596 38.0164 548.082 37.5267 548.689 37.5267ZM572.006 38.9957V35.0784H571.034V37.4043C570.67 37.0371 570.184 36.7922 569.698 36.7922C568.484 36.7922 567.391 37.7716 567.391 39.1181C567.391 40.4647 568.362 41.444 569.698 41.444C570.184 41.444 570.67 41.1992 571.034 40.832V41.3216H572.006V38.9957ZM568.484 38.9957C568.484 38.2612 569.091 37.7715 569.82 37.7715C570.548 37.7715 571.034 38.3836 571.034 39.1181C571.034 39.8526 570.427 40.3423 569.698 40.3423C569.091 40.3423 568.605 39.8526 568.484 38.9957ZM537.03 38.9957V36.7922H536.059V37.2819C535.694 36.9146 535.209 36.6698 534.723 36.6698C533.508 36.6698 532.416 37.6491 532.416 38.9957C532.416 40.3423 533.387 41.3216 534.723 41.3216C535.209 41.3216 535.694 41.0768 536.059 40.7095V41.1992H537.03V38.9957ZM533.63 38.9957C533.63 38.2612 534.237 37.7715 534.966 37.7715C535.694 37.7715 536.18 38.3836 536.18 39.1181C536.18 39.8526 535.573 40.3423 534.844 40.3423C534.237 40.3423 533.63 39.8526 533.63 38.9957Z" fill="white"/>
<path d="M555.845 3.45068H541.758V29.0357H555.845V3.45068Z" fill="#FF5F00"/>
<path d="M542.608 16.3043C542.608 11.2852 544.915 6.63342 548.801 3.45059C541.758 -2.05815 531.678 -0.833971 526.092 6.14376C520.627 13.2439 521.841 23.4045 528.763 29.0357C534.593 33.6875 542.851 33.6875 548.68 29.0357C544.915 25.9752 542.608 21.3234 542.608 16.3043Z" fill="#EB001B"/>
<path d="M574.901 16.0846C574.901 25.021 567.735 32.366 558.749 32.366C555.105 32.366 551.584 31.1418 548.791 28.9383C555.834 23.4296 557.049 13.1466 551.462 6.16891C550.612 5.18958 549.762 4.21023 548.791 3.47574C555.834 -2.033 565.914 -0.808824 571.379 6.16891C573.686 8.86207 574.901 12.4121 574.901 16.0846Z" fill="#F79E1B"/>
<path d="M669.024 37.3949H660.736L665.92 5.2605H674.207L669.024 37.3949Z" fill="#00579F"/>
<path d="M699.069 6.04729C697.434 5.39709 694.841 4.6792 691.635 4.6792C683.451 4.6792 677.687 9.05472 677.652 15.3104C677.584 19.9258 681.778 22.4893 684.916 24.0283C688.122 25.6008 689.212 26.6272 689.212 28.0289C689.179 30.1817 686.621 31.174 684.235 31.174C680.926 31.174 679.153 30.6624 676.459 29.4647L675.368 28.9513L674.208 36.1648C676.152 37.0526 679.733 37.8404 683.451 37.875C692.147 37.875 697.808 33.5672 697.875 26.9007C697.908 23.2427 695.694 20.4397 690.919 18.1493C688.02 16.6789 686.245 15.6875 686.245 14.1831C686.279 12.8155 687.746 11.4147 691.018 11.4147C693.713 11.3461 695.692 11.9954 697.192 12.6451L697.941 12.9863L699.069 6.04729Z" fill="#00579F"/>
<path d="M710.082 26.0108C710.765 24.1647 713.391 17.0199 713.391 17.0199C713.357 17.0885 714.072 15.1397 714.482 13.9434L715.061 16.7123C715.061 16.7123 716.63 24.4042 716.971 26.0108C715.676 26.0108 711.719 26.0108 710.082 26.0108ZM720.313 5.2605H713.902C711.925 5.2605 710.423 5.84117 709.57 7.9267L697.26 37.3944H705.956C705.956 37.3944 707.388 33.4283 707.695 32.5741C708.649 32.5741 717.109 32.5741 718.336 32.5741C718.574 33.7023 719.325 37.3944 719.325 37.3944H726.999L720.313 5.2605Z" fill="#00579F"/>
<path d="M653.814 5.2605L645.698 27.1731L644.811 22.7289C643.31 17.601 638.604 12.0296 633.353 9.25935L640.787 37.3608H649.551L662.578 5.2605H653.814Z" fill="#00579F"/>
<path d="M638.162 5.26294H624.828L624.691 5.91222C635.093 8.57888 641.981 15.0068 644.812 22.7328L641.913 7.96413C641.436 5.91177 639.969 5.33064 638.162 5.26294Z" fill="#FAA61A"/>
<path d="M917.432 30.7308V22.6495L912.039 8.18049H914.751L918.726 19.3441L923.3 5.84644H925.791L919.916 22.7519V30.7308H917.432Z" fill="#FF0000"/>
<path d="M933.426 30.7305H931.344C931.234 30.3175 931.16 29.8958 931.123 29.4702H930.965C930.63 29.9407 930.185 30.3217 929.668 30.5799C929.151 30.8381 928.579 30.9655 928.001 30.951C925.73 30.951 924.184 29.2471 924.184 26.1254C924.184 22.7122 925.919 20.5751 930.367 20.5751H930.713V19.6299C930.713 17.5479 930.018 16.6631 928.631 16.6631C927.369 16.6631 926.297 17.3274 925.481 18.052L925.003 15.8755C926.096 15.0589 927.424 14.6169 928.789 14.6152C931.596 14.6152 933.142 15.8125 933.142 19.6614V27.1362C933.142 28.3399 933.237 29.5417 933.426 30.7305ZM930.713 22.4366H930.43C927.369 22.4366 926.707 23.7913 926.707 25.8497C926.707 27.6875 927.306 28.8769 928.568 28.8769C929 28.8528 929.421 28.7259 929.794 28.5067C930.167 28.2875 930.482 27.9823 930.713 27.6167V22.4366ZM938.661 30.7305H936.193V14.8043H938.653V16.1905H938.81C939.186 15.718 939.66 15.3325 940.199 15.0605C940.737 14.7886 941.329 14.6367 941.932 14.6152C944.014 14.6152 945.117 15.781 945.117 18.2095V30.7305H942.628V18.4301C942.628 17.2329 942.09 16.8207 941.144 16.8207C940.094 16.8207 939.22 17.6083 938.653 18.3959L938.661 30.7305ZM947.553 23.3791C947.553 17.4823 949.761 14.6126 952.949 14.6126C953.665 14.6092 954.367 14.8174 954.965 15.2112V8.18018H957.425V30.7305H955.587L955.398 29.4702H955.241C954.545 30.3524 953.665 30.951 952.368 30.951C949.257 30.951 947.553 28.3019 947.553 23.3817V23.3791ZM954.965 17.3983C954.729 17.1446 954.44 16.9454 954.119 16.8144C953.798 16.6834 953.453 16.6237 953.106 16.6395C951.119 16.6395 950.171 19.6378 950.171 22.8855C950.171 26.6058 950.867 28.8769 952.665 28.8769C953.125 28.8967 953.581 28.792 953.986 28.5739C954.391 28.3558 954.729 28.0323 954.965 27.6377V17.3983ZM965.186 30.9589C961.904 30.9589 959.885 28.3334 959.885 23.4526C959.885 18.3434 961.306 14.6231 964.679 14.6231C967.328 14.6231 969.064 16.608 969.064 22.0007V23.3581H962.448C962.448 26.9524 963.458 28.8454 965.414 28.8454C966.511 28.8176 967.571 28.4426 968.442 27.7742L969.011 29.6593C967.924 30.5199 966.572 30.9764 965.186 30.951V30.9589ZM962.474 21.3365H966.541C966.541 18.6244 966.1 16.6369 964.679 16.6369C963.167 16.6316 962.629 18.4931 962.474 21.3365ZM979.755 14.841L976.791 22.279L980.101 30.7305H977.549L975.087 24.1668L972.69 30.7305H970.264L973.574 22.4996L970.587 14.8358H973.141L975.192 20.6119L977.366 14.8358L979.755 14.841Z" fill="white"/>
<path d="M988.546 15.1519L987.885 30.574H986.593L987.57 8.02368H989.303L992.679 21.9388C992.933 22.9645 993.108 24.0081 993.204 25.0605H993.267C993.378 24.0072 993.567 22.9637 993.834 21.9388L997.313 8.03418H999.077L1000.06 30.5845H998.542L997.88 15.0364C997.785 13.2694 997.817 11.912 997.817 10.5258H997.722C997.555 11.8966 997.303 13.2558 996.966 14.5953L993.816 27.0532H992.587L989.463 14.5953C989.115 13.2703 988.872 11.9202 988.735 10.5573H988.649C988.649 11.786 988.609 13.616 988.546 15.1519Z" fill="white"/>
<path d="M1002.58 22.8771C1002.58 17.5789 1004.69 14.5176 1007.43 14.5176C1010.18 14.5176 1012.29 17.2323 1012.29 22.6881C1012.29 27.9548 1010.19 31.045 1007.43 31.045C1004.68 31.045 1002.58 28.3014 1002.58 22.8771ZM1010.81 22.7826C1010.81 17.7942 1009.3 15.7489 1007.43 15.7489C1005.57 15.7489 1004.06 17.957 1004.06 22.7826C1004.06 27.7343 1005.57 29.8478 1007.43 29.8478C1009.3 29.8478 1010.81 27.5767 1010.81 22.7826Z" fill="white"/>
<path d="M1016.49 19.1225V30.7298H1015.01V14.8351H1016.36L1016.43 17.4606H1016.49C1016.93 16.2844 1018.19 14.5095 1020.34 14.5095C1022.48 14.5095 1023.68 15.8223 1023.68 18.3585V30.7298H1022.2V18.5554C1022.2 16.6624 1021.5 15.7803 1020.05 15.7803C1018.47 15.7803 1017.28 17.1061 1016.49 19.1225Z" fill="white"/>
<path d="M1031.22 29.7531C1033.32 29.7531 1034.44 28.0492 1034.44 28.0492L1034.91 29.2464C1034.47 29.8173 1033.91 30.2779 1033.26 30.5912C1032.62 30.9045 1031.91 31.0617 1031.19 31.0501C1027.82 31.0501 1026.27 27.9861 1026.27 22.7824C1026.27 17.5787 1028.22 14.5095 1030.91 14.5095C1033.65 14.5095 1035.41 17.3976 1034.91 23.0345H1027.72C1027.78 27.3875 1028.92 29.7531 1031.22 29.7531ZM1027.75 21.8609H1033.53C1033.79 17.6365 1032.51 15.7435 1030.9 15.7435C1029.23 15.7488 1027.88 17.8938 1027.75 21.8609Z" fill="white"/>
<path d="M1037.25 35.7128L1037.09 34.3239C1037.41 34.4115 1037.73 34.4583 1038.06 34.4631C1039.14 34.4631 1039.9 33.4129 1040.36 31.6564L1040.49 31.1839L1036.55 14.8481H1038.03L1040.56 25.224C1040.84 26.4053 1041.06 27.6007 1041.21 28.8052H1041.31C1041.53 27.5449 1041.78 26.3766 1042.06 25.2109L1044.52 14.835H1045.85L1041.79 31.5488C1041.25 33.6938 1040.3 35.7758 1038.06 35.7758C1037.79 35.7756 1037.52 35.7545 1037.25 35.7128Z" fill="white"/>
<path fill-rule="evenodd" clip-rule="evenodd" d="M259.067 12.8129C260.991 12.8129 262.551 11.2537 262.551 9.33097C262.551 7.40714 260.991 5.84644 259.067 5.84644C257.144 5.84644 255.585 7.40714 255.585 9.33097C255.585 11.2537 257.144 12.8129 259.067 12.8129ZM232.38 14.6933C232.222 15.0882 231.091 18.2849 228.354 21.598V7.43184L221.061 8.87313V34.5508H228.354V26.6136C230.466 29.7814 231.509 34.5508 231.509 34.5508H240.244C239.38 30.9588 235.6 24.3356 235.6 24.3356C238.992 20.035 240.482 15.4525 240.719 14.6933H232.38ZM251.551 14.4252C245.02 14.6349 241.704 17.5654 241.704 23.3908V34.5508H248.83V25.4501C248.83 21.9618 249.286 20.4666 253.426 20.324V14.5274C252.729 14.3796 251.551 14.4252 251.551 14.4252ZM208.831 17.5208C207.938 17.462 205.87 17.3284 205.87 15.4667C205.87 13.2202 208.847 13.2202 209.964 13.2202C211.927 13.2202 214.47 13.8004 216.286 14.3436C216.286 14.3436 217.299 14.7008 218.162 15.0665L218.242 15.0882V8.93564L218.132 8.90307C215.988 8.15323 213.496 7.43184 208.876 7.43184C200.91 7.43184 198.087 12.0728 198.087 16.0485C198.087 18.3403 199.069 23.734 208.193 24.3562C208.966 24.4038 211.019 24.5221 211.019 26.4459C211.019 28.0343 209.338 28.971 206.512 28.971C203.414 28.971 200.41 28.1811 198.585 27.432V33.7687C201.317 34.4849 204.397 34.8428 208.006 34.8428C215.796 34.8428 219.284 30.4519 219.284 26.1C219.284 21.1656 215.38 17.9596 208.831 17.5208ZM255.534 34.5508H262.602V14.7157H255.534V34.5508ZM275.912 8.69643V34.5508H282.981V7.43184L275.912 8.69643ZM265.597 8.69643L272.659 7.43184V34.5508H265.597V8.69643Z" fill="url(#paint0_linear)"/>
<path d="M822.004 23.3862H823.264V26.2236H824.175L825.809 23.3862H827.186L825.225 26.7163V26.7396L827.303 30.3735H825.879L824.198 27.3248H823.288V30.3735H822.028V23.3855H822.004V23.3862ZM830.127 25.2389C831.643 25.2389 832.881 26.3409 832.881 27.8649C832.881 29.4129 831.667 30.4916 830.15 30.4916C828.633 30.4916 827.419 29.4129 827.419 27.8649C827.396 26.3176 828.609 25.2389 830.127 25.2389ZM833.861 25.3555H835.051V29.2956H836.615V25.3563H837.805V29.2956H839.369V25.3563H840.56V30.3735H833.907V25.3555H833.861ZM844.084 25.2389C845.508 25.2389 846.301 26.2943 846.301 27.6076C846.297 27.7725 846.282 27.9369 846.255 28.0996H842.824C842.894 28.9669 843.571 29.4363 844.318 29.4363C844.831 29.4363 845.345 29.2016 845.741 28.8969L846.232 29.7883C845.718 30.2329 844.948 30.5149 844.224 30.5149C842.567 30.5149 841.54 29.3189 841.54 27.8882C841.54 26.3176 842.59 25.2389 844.084 25.2389ZM846.885 29.3189C847.492 29.2249 847.935 28.7096 847.935 26.9269V25.3563H851.577V30.3735H850.339V26.3635H849.125V26.9262C849.125 29.1068 848.542 30.3735 846.885 30.4202V29.3182V29.3189ZM855.124 25.2389C856.547 25.2389 857.341 26.2943 857.341 27.6076C857.337 27.7725 857.322 27.9369 857.295 28.0996H853.863C853.934 28.9669 854.611 29.4363 855.358 29.4363C855.871 29.4363 856.384 29.2016 856.781 28.8969L857.271 29.7883C856.758 30.2329 855.987 30.5149 855.264 30.5149C853.607 30.5149 852.58 29.3189 852.58 27.8882C852.58 26.3176 853.63 25.2389 855.124 25.2389ZM858.368 25.3555H859.605V27.2789H860.212L861.426 25.3563H862.803L861.216 27.7476V27.7716L862.989 30.3735H861.543L860.236 28.3343H859.583V30.3735H858.344V25.3555H858.368H858.368ZM830.127 29.4129C830.944 29.4129 831.621 28.7796 831.621 27.8416C831.621 26.9269 830.944 26.2702 830.126 26.2702C829.31 26.2702 828.657 26.9043 828.657 27.8416C828.657 28.7796 829.31 29.4129 830.127 29.4129ZM845.041 27.2323C845.041 26.5756 844.597 26.1769 844.037 26.1769C843.408 26.1769 842.94 26.5989 842.824 27.2323H845.041ZM856.081 27.2323C856.081 26.5756 855.638 26.1769 855.078 26.1769C854.447 26.1769 853.98 26.5989 853.863 27.2323H856.081Z" fill="#535353"/>
<path d="M839.058 7.68436V19.5264C839.059 19.5698 839.052 19.6129 839.035 19.6531C839.019 19.6934 838.995 19.7299 838.965 19.7606C838.934 19.7912 838.898 19.8153 838.858 19.8315C838.818 19.8476 838.775 19.8554 838.732 19.8544H836.328C836.285 19.8554 836.242 19.8476 836.202 19.8315C836.162 19.8153 836.125 19.7912 836.095 19.7606C836.064 19.7299 836.04 19.6934 836.024 19.6531C836.008 19.6129 836 19.5698 836.001 19.5264V7.68436C836 7.64102 836.008 7.59793 836.024 7.55768C836.04 7.51744 836.064 7.48089 836.095 7.45023C836.125 7.41958 836.162 7.39545 836.202 7.37932C836.242 7.3632 836.285 7.35539 836.328 7.35639H838.732C838.775 7.35539 838.818 7.3632 838.858 7.37932C838.898 7.39545 838.934 7.41958 838.965 7.45023C838.995 7.48089 839.019 7.51744 839.035 7.55768C839.052 7.59793 839.059 7.64102 839.058 7.68436ZM857.824 7.35639C857.917 7.35639 858.034 7.40304 858.15 7.49705C858.221 7.56702 858.221 7.68436 858.197 7.77838L854.229 19.6438C854.205 19.7052 854.164 19.758 854.11 19.7956C854.056 19.8333 853.992 19.854 853.926 19.8551H851.779C851.639 19.8551 851.522 19.7844 851.476 19.6438L849.164 12.7264L846.853 19.643C846.829 19.7044 846.787 19.7573 846.733 19.7949C846.679 19.8325 846.616 19.8532 846.55 19.8544H844.403C844.263 19.8544 844.146 19.7844 844.099 19.643L840.131 7.77766C840.108 7.68436 840.108 7.59035 840.178 7.49705C840.225 7.40304 840.342 7.35639 840.434 7.35639H843.119C843.259 7.35639 843.375 7.44968 843.423 7.59035L845.546 14.6017L847.88 7.59035C847.904 7.52894 847.946 7.47609 848 7.43847C848.054 7.40085 848.118 7.38015 848.184 7.37898H850.074C850.214 7.37898 850.331 7.44968 850.377 7.59035L852.712 14.6017L854.836 7.59035C854.855 7.52392 854.895 7.46538 854.949 7.42328C855.004 7.38118 855.07 7.35774 855.139 7.35639H857.823H857.824ZM861.885 7.35639C862.048 7.35639 862.188 7.49705 862.211 7.68436V19.5264C862.212 19.5698 862.204 19.6129 862.188 19.6531C862.172 19.6934 862.148 19.7299 862.118 19.7606C862.087 19.7912 862.051 19.8153 862.011 19.8315C861.971 19.8476 861.928 19.8554 861.885 19.8544H859.481C859.438 19.8554 859.395 19.8476 859.355 19.8315C859.315 19.8153 859.278 19.7912 859.248 19.7606C859.217 19.7299 859.193 19.6934 859.177 19.6531C859.161 19.6129 859.153 19.5698 859.154 19.5264V7.68436C859.153 7.64102 859.161 7.59793 859.177 7.55768C859.193 7.51744 859.217 7.48089 859.248 7.45023C859.278 7.41958 859.315 7.39545 859.355 7.37932C859.395 7.3632 859.438 7.35539 859.481 7.35639H861.885ZM834.6 19.4331C834.741 19.5971 834.624 19.8311 834.413 19.8311H831.472C831.415 19.8327 831.357 19.8208 831.304 19.7964C831.252 19.772 831.206 19.7357 831.169 19.6904L830.68 19.0811C829.652 19.7371 828.438 20.1365 827.155 20.1365C823.561 20.1365 820.643 17.2051 820.643 13.5937C820.643 9.98237 823.561 7.05101 827.155 7.05101C830.749 7.05101 833.667 9.98237 833.667 13.5937C833.667 14.8838 833.293 16.1031 832.64 17.1344L834.6 19.4324V19.4331ZM810.023 25.1778C810.63 25.4125 810.864 26.3264 810.91 26.7251C811.004 27.4525 810.794 27.7338 810.56 27.7338C810.327 27.7338 810 27.4525 809.65 26.8898C809.3 26.3264 809.16 25.6938 809.347 25.3651C809.463 25.1537 809.72 25.0605 810.023 25.1778H810.023ZM806.475 27.8278C806.849 27.8278 807.269 27.9918 807.643 28.3198C808.366 28.9298 808.576 29.6332 808.203 30.1492C807.992 30.4072 807.643 30.5712 807.246 30.5712C806.849 30.5712 806.429 30.4305 806.149 30.1725C805.495 29.6098 805.309 28.6711 805.728 28.1558C805.892 27.9444 806.149 27.8278 806.475 27.8278ZM798.307 34.6045C789.437 34.6045 782.249 27.3818 782.249 18.4711C782.249 9.56038 789.438 2.33838 798.306 2.33838C807.175 2.33838 814.364 9.56111 814.364 18.4711C814.364 21.4957 813.524 24.3338 812.101 26.7492C812.054 26.8191 811.937 26.7958 811.914 26.7018C811.354 22.7391 808.95 20.5577 805.449 19.9018C805.145 19.8544 805.099 19.6671 805.495 19.6205C806.569 19.5264 808.086 19.5498 808.879 19.6904C808.926 19.2918 808.95 18.8698 808.95 18.4478C808.95 12.5617 804.188 7.77766 798.329 7.77766C792.472 7.77766 787.71 12.5617 787.71 18.4478C787.71 24.3338 792.472 29.1179 798.33 29.1179H798.82C798.654 28.1658 798.583 27.1994 798.61 26.2331C798.633 25.5765 798.773 25.4825 799.053 25.9985C800.524 28.5545 802.625 30.8525 806.732 31.7672C810.093 32.5179 813.454 33.3852 817.072 38.0045C817.398 38.4032 816.909 38.8252 816.535 38.4972C812.848 35.2138 809.487 34.1351 806.429 34.1351C802.998 34.1592 800.664 34.6045 798.306 34.6045H798.307ZM828.765 16.8064L827.481 15.2351C827.342 15.0711 827.459 14.8131 827.668 14.8131H830.376C830.516 14.4377 830.586 14.0157 830.586 13.5937C830.586 11.6478 829.139 9.95905 827.155 9.95905C825.171 9.95905 823.723 11.6478 823.723 13.5937C823.723 15.5397 825.171 17.2051 827.155 17.2051C827.715 17.2284 828.275 17.0644 828.765 16.8064Z" fill="#FF8C00"/>
<path d="M160.274 9.16009C158.194 7.73479 155.045 7.01597 150.918 7.01597H140.109L136.091 28.831H121.931L122.841 23.8816H131.37L132.381 18.3227L123.856 18.335L124.769 13.4077H133.555L134.724 7.01724H116.882L113.067 27.7102H106.519L110.36 7.01615H101.033L97.2179 27.7091H90.8394L94.6836 7.01615H85.3616L81.3383 28.8312H67.0767L67.9782 23.8818H76.5422L77.5542 18.3545L68.9984 18.3459L69.9061 13.4088H78.7906L79.9522 7.01562H24.352L21.1873 24.3025L14.885 7.01562H5.2082L0 35.2277H9.24148L12.3939 17.4641L18.5095 35.2277H51.6302L55.6572 13.4061H60.8371L56.8102 35.2277H143.957L146.484 21.4531L150.571 35.2277H159.817L155.582 23.9721L156.551 23.7636C158.685 23.3061 160.35 22.3236 161.509 20.8504C162.667 19.3638 163.257 17.4552 163.257 15.1625C163.257 12.4934 162.281 10.5297 160.271 9.15845L160.274 9.16009ZM43.5882 28.831H29.4419L30.3557 23.8816H39.2287L40.2346 18.3069H31.4469L32.2933 13.4091H46.4189L43.5855 28.831L43.5882 28.831ZM152.655 19.3283C151.726 19.9784 150.377 20.2949 148.534 20.2949H146.706L148.108 12.7241H149.453C150.983 12.7241 152.1 12.9694 152.87 13.4698C153.471 13.8623 154.186 14.6388 154.186 16.107C154.184 17.8832 153.352 18.8375 152.653 19.3281L152.655 19.3283Z" fill="#83BA3B"/>
<path d="M381.78 20.6631C381.78 25.056 385.4 28.673 390.048 28.673C391.853 28.673 393.92 27.8971 395.221 26.3455C395.483 26.3455 395.483 26.0834 395.483 25.8213L393.678 24.0076C393.416 23.7455 393.164 23.7455 393.164 24.0076C392.388 24.5213 391.097 25.0455 390.069 25.0455C387.488 25.0455 385.673 22.9801 385.673 20.3905C385.673 18.0631 387.488 15.9977 390.069 15.9977C391.097 15.9977 392.136 16.2598 393.164 17.0252C393.164 17.2873 393.427 17.2873 393.678 17.0252L395.231 15.2219C395.494 14.9598 395.494 14.7082 395.231 14.7082C393.941 13.1565 392.136 12.6428 390.059 12.6428C385.4 12.6533 381.78 16.2703 381.78 20.6631ZM402.712 22.4664C402.712 25.8213 405.555 28.6625 408.913 28.6625C412.533 28.6625 415.376 25.8213 415.376 22.4664V13.167C415.376 12.9049 415.114 12.9049 414.862 12.9049H412.27C412.019 12.9049 411.756 12.9049 411.756 13.167V22.2043C411.756 23.7559 410.718 25.0455 408.913 25.0455C407.36 25.0455 406.332 23.7559 406.332 22.2043V13.167C406.332 12.9049 406.07 12.9049 405.818 12.9049H403.237C402.974 12.9049 402.723 12.9049 402.723 13.167L402.712 22.4664ZM423.917 27.8867C423.917 28.1488 424.179 28.4004 424.431 28.4004H429.866C432.457 28.4004 434.776 26.5866 434.776 24.0076C434.776 21.9422 432.971 20.9043 431.67 20.3905C432.699 19.8768 434.262 18.5873 434.262 17.0356C434.262 14.4566 432.195 12.9049 429.604 12.9049H424.431C424.169 12.9049 423.917 12.9049 423.917 13.167V27.8867ZM427.274 19.1115V16.0187H429.089C429.866 16.0187 430.642 16.5324 430.642 17.5703C430.642 18.3462 429.866 19.122 429.089 19.122H427.274V19.1115ZM427.274 25.3181V21.9527H429.089C430.118 21.9527 431.156 22.7285 431.156 23.5043C431.156 24.5422 430.38 25.3181 429.341 25.3181C429.331 25.3181 427.274 25.3181 427.274 25.3181ZM442.53 27.8867C442.53 28.1488 442.792 28.4004 442.792 28.4004H445.636C445.887 28.4004 445.887 28.1383 445.887 27.8867V13.167C445.887 12.9049 445.887 12.9049 445.636 12.9049H442.792C442.792 12.9049 442.53 12.9049 442.53 13.167V27.8867ZM456.736 27.8867C456.736 28.1488 456.999 28.4004 457.261 28.4004H459.842C460.104 28.4004 460.356 28.1383 460.356 27.8867V16.0082H463.462C463.724 16.0082 463.976 15.7461 463.976 15.7461V13.167C463.976 12.9049 463.713 12.9049 463.462 12.9049H453.641C453.379 12.9049 453.127 12.9049 453.127 13.167V15.7461C453.127 15.7461 453.389 16.0082 453.641 16.0082H456.736V27.8867ZM470.187 26.8592C470.701 27.3729 472.254 28.673 475.36 28.673C478.455 28.673 480.532 26.3455 480.532 24.018C480.532 20.9148 477.689 19.6252 476.136 18.8494C474.332 18.0736 473.545 17.5599 473.545 16.784C473.545 16.2703 474.321 15.4945 475.097 15.4945C476.388 15.4945 477.941 16.784 478.203 17.0461C478.465 17.0461 478.717 16.784 478.98 16.784L480.018 14.9808C480.281 14.7187 480.281 14.4671 480.018 14.2049C479.242 13.6912 477.427 12.6533 475.097 12.6533C471.729 12.6533 469.935 14.7187 469.935 17.0461C469.935 19.6252 472.527 21.1769 474.332 21.9527C475.884 22.4664 476.661 23.2422 476.661 24.2801C476.661 25.056 476.147 25.5697 475.108 25.5697C473.555 25.5697 472.002 24.2801 472.002 24.2801C471.74 24.2801 471.488 24.018 471.226 24.2801L470.198 26.3455C469.925 26.5971 469.925 26.5971 470.187 26.8592Z" fill="#524DA3"/>
<path d="M357.994 37.7111L351.279 25.8221H346.621L345.33 25.0568L343.001 21.1777V19.6261L345.33 15.7574L346.621 14.9816H351.279L357.994 2.84106H339.644L338.343 3.61689L329.298 19.6261V21.1777L338.343 36.9352L339.644 37.7111H357.994Z" fill="#F7CE39"/>
<path d="M360.586 0L366.535 10.0752L372.484 20.4125L366.535 30.4877L360.586 40.825H348.95H337.062L331.376 30.4877L325.427 20.402L331.376 10.0647L337.062 0H348.95H360.586ZM351.279 14.9817L358.005 2.84118H348.96H339.654L346.621 14.9817H348.95H351.279ZM359.285 3.617L352.045 16.2713H347.397L349.464 19.6262H368.591L363.943 11.6163L359.285 3.617ZM352.056 24.2811L359.295 36.9354L363.954 28.9255L368.602 21.1778H349.464L347.397 24.2811H352.056ZM357.994 37.7112L351.269 25.8327H348.939H346.621L339.643 37.7112H348.95H357.994ZM329.298 19.6262H343.001L344.291 17.5608L345.32 15.7576L338.342 3.617L333.946 11.6268L329.298 19.6262ZM343.001 21.1778H329.298L333.946 28.9255L338.342 36.9354L345.33 25.0569L343.001 21.1778ZM346.107 23.5053L348.173 20.402L346.107 17.0471L344.302 20.402L346.107 23.5053Z" fill="#524DA3"/>
<defs>
<linearGradient id="paint0_linear" x1="221.046" y1="5.84644" x2="227.425" y2="41.6118" gradientUnits="userSpaceOnUse">
<stop stop-color="#8C257D"/>
<stop offset="1" stop-color="#76348F"/>
</linearGradient>
</defs>
</svg>
